<?xml version="1.0" encoding="UTF-8"?>
<!DOCTYPE svg PUBLIC "-//W3C//DTD SVG 1.1//EN" "http://www.w3.org/Graphics/SVG/1.1/DTD/svg11.dtd">
<!-- Creator: CorelDRAW 2020 (64-Bit) -->
<svg xmlns="http://www.w3.org/2000/svg" xml:space="preserve" width="75.4876mm" height="100mm" version="1.1" style="shape-rendering:geometricPrecision; text-rendering:geometricPrecision; image-rendering:optimizeQuality; fill-rule:evenodd; clip-rule:evenodd"
viewBox="0 0 40.25 53.32"
 xmlns:xlink="http://www.w3.org/1999/xlink"
 xmlns:xodm="http://www.corel.com/coreldraw/odm/2003">
 <defs>
  <style type="text/css">
   <![CDATA[
    .fil0 {fill:white}
   ]]>
  </style>
 </defs>
 <g id="Capa_x0020_1">
  <metadata id="CorelCorpID_0Corel-Layer"/>
  <path class="fil0" d="M21.17 52.27c2.52,0.03 7.16,-0.11 9.1,0.04l0 0.47 -9.83 -0.03c-0.04,-0.59 0.13,-0.49 0.72,-0.49zm-11.28 -9.12l-0.57 -0.66 0 -0 0.57 0.66zm11.33 -8.83l-0.75 -0.03 -0.05 -0.21c0.62,0 0.77,-0.09 1.02,0.11 -0.2,0.27 -0.03,0.05 -0.22,0.13zm10.31 0.01l-0 -0 -0 -0 0 0zm-12.74 9.61c0.01,0 0.02,0 0.03,0.01l-0.03 -0.01zm0.05 0.01c0.01,0 0.02,0 0.03,0.01 -0.01,-0 -0.02,-0 -0.03,-0.01zm0.06 0.01c0.01,0 0.02,0 0.03,0.01l-0.03 -0.01zm0.06 0.01c0.01,0 0.02,0 0.03,0.01 -0.01,-0 -0.02,-0 -0.03,-0.01zm9.39 -40.57c0.01,0 0.02,0.01 0.04,0.01 -0.01,-0 -0.02,-0.01 -0.04,-0.01zm0.1 0.03c0.02,0.01 0.04,0.01 0.06,0.02 -0.02,-0.01 -0.04,-0.01 -0.06,-0.02zm0.25 0.1c0.01,0.01 0.02,0.01 0.04,0.02 -0.01,-0.01 -0.02,-0.01 -0.04,-0.02zm0.09 0.05c0.01,0.01 0.02,0.01 0.03,0.02 -0.01,-0.01 -0.02,-0.01 -0.03,-0.02zm0.03 0.02c0.01,0.01 0.02,0.01 0.03,0.02 -0.01,-0.01 -0.02,-0.01 -0.03,-0.02zm0.04 0.02c0.03,0.02 0.07,0.04 0.1,0.06 -0.03,-0.02 -0.07,-0.04 -0.1,-0.06zm-1.91 -0.74c-0.01,-0 -0.02,-0 -0.02,-0 0.01,0 0.02,0 0.02,0zm-0.07 -0l-0.02 -0c0.01,0 0.02,0 0.02,0zm-0.44 0.01c-0.01,0 -0.02,0 -0.03,0 0.01,-0 0.02,-0 0.03,-0zm-0.2 0.03c-0.01,0 -0.02,0 -0.03,0.01 0.01,-0 0.02,-0 0.03,-0.01zm-0.07 0.01c-0.01,0 -0.02,0 -0.03,0.01 0.01,-0 0.02,-0 0.03,-0.01zm-0.48 0.13c-0.01,0 -0.02,0.01 -0.04,0.01 0.01,-0 0.02,-0.01 0.04,-0.01zm-0.07 0.03c-0.01,0 -0.02,0.01 -0.04,0.01 0.01,-0 0.02,-0.01 0.04,-0.01zm-0.28 0.12c-0.01,0.01 -0.03,0.01 -0.04,0.02 0.01,-0.01 0.03,-0.01 0.04,-0.02zm-0.07 0.03c-0.01,0.01 -0.03,0.01 -0.04,0.02 0.01,-0.01 0.03,-0.01 0.04,-0.02zm-0.07 0.04c-0.01,0.01 -0.03,0.01 -0.04,0.02 0.01,-0.01 0.03,-0.01 0.04,-0.02zm-0.07 0.04c-0.01,0.01 -0.03,0.01 -0.04,0.02 0.01,-0.01 0.03,-0.01 0.04,-0.02zm-0.07 0.04c-0.01,0.01 -0.03,0.02 -0.04,0.02 0.01,-0.01 0.03,-0.02 0.04,-0.02zm-0.07 0.04c-0.01,0.01 -0.03,0.01 -0.04,0.02 0.01,-0.01 0.03,-0.01 0.04,-0.02zm-0.07 0.04c-0.01,0.01 -0.02,0.01 -0.03,0.02 0.01,-0.01 0.02,-0.01 0.03,-0.02zm-0.07 0.04c-0.02,0.01 -0.05,0.03 -0.07,0.04 0.02,-0.02 0.05,-0.03 0.07,-0.04zm-11.74 40.39l-0.88 0.05c-0.04,-0 -0.06,-0 -0.1,-0 -0.04,-0 -0.06,-0 -0.1,-0.01 -1.24,-0.07 -0.79,0.2 -1.21,0.16 -0.58,-0.25 -0.1,-0.07 -0.33,-0.26 -0.19,-0.17 -0.22,-0.21 -0.69,-0.29l-0 -0 -0 -0 -0 -0 -0 -0 -0 -0 -0 0 -0 -0 -0 -0 -0 -0 -0 -0 -0 -0 0 0 -0 -0 -0 -0 -0 -0 -0 -0 -0 -0 -0 0 -0 -0 -0 -0 -0 -0 -0 -0 -0 -0 -0 0 -0 -0 -0 -0 -0 -0 -0 -0 -0 -0 -0 0 -0 -0 -0 -0 -0 -0 -0 -0 -0 -0 -0 0 -0 -0 -0 -0 -0 -0 -0 -0 -0 -0 -0 0 -0 -0 -0 -0 -0 -0 -0 -0 -0 -0 -0 0 -0 -0 -0 -0 -0 -0 -0 -0 -0 -0 -0 0 -0 -0 -0 -0 -0 -0 -0 -0 -0 -0 -0 0 -0 -0 -0 -0 -0 -0 -0 -0 -0 -0 -0 0 -0 -0 -0 -0 -0 -0 -0 -0 -0 -0 -0 0 -0 -0 -0 -0 -0 -0 -0 -0 3.25 0.01c0.24,0.09 0.13,-0.11 0.18,0.36zm6.44 0l-0.27 0.2c-0.01,-0.01 -0.03,-0.01 -0.04,-0.02l-0 -0c-0.01,-0.01 -0.03,-0.01 -0.04,-0.02l-0 -0 -0.02 -0.01 0.37 -0.16zm-0.74 0.08l-0.03 -0 -0.04 -0 -0.02 -0 -0.04 -0 -0.03 -0 -0.03 -0 -0.04 -0 -0.03 -0 -0.04 -0 -0.03 -0 -0.04 -0 -0.03 -0 -0.04 -0 -0.03 -0 -0.04 -0 -0.03 -0 -0.04 -0 -0.03 -0 -0.04 -0 -0.03 -0 -0.04 -0 -0.03 -0 -0.04 -0 -0.03 -0 -0.04 -0 -0.03 -0 -0.04 -0 -0.04 -0 -0.04 -0 -0.03 0 -0.06 0 -0.03 0 -0.04 0 -0.04 0 -0.04 0 -0.02 0 -0.06 0 -0.02 0 -0.06 0 -0.02 0 -0.06 0 -0.03 0 -0.05 0 -0.03 0 -0.05 0 -0.04 0 -0.04 0 -0.04 0 -0.05 0 -0.01 0 -0.04 0 -0.01 0 -0.05 0 -0.04 0 -0.03 0 -0.05 0 -0.03 0 -0.05 0 -0.02 0 -0.04 0 -0.04 0 -0.01 0 -0.05 0 -0.02 0 -0.04 0 -0.04 0 -0 0 -0.07 0 -0.02 0 -0.07 0.01 -0.03 0 -0.05 0 -0.03 0 -0.05 0 -0 0 -0.07 0.01 -0.03 0 -0.05 0 -0.08 0.01 -0.03 0 -0.05 0 -0.07 0.01 -0 0 -0.02 0 -0.05 0 -0.14 0.01 -0.02 0 -0.05 0 -0.07 0.01 -0.02 0 -0.05 0 -0.02 0 -0.05 0 -0.02 0 -0.06 0.01 -0.05 0 -0.01 0 -0.05 0 -0.01 0 -0.06 0 -0.05 0 -0.01 0 -0.05 0 0.03 -0.55 4.36 -0c0.11,0.13 0.04,0.07 0.14,0.21 0.11,0.15 0.06,0.12 0.13,0.15l-0.74 0.08zm-1.09 -9.65l-1.41 0.05c-0.32,-0.03 -0.13,0.12 -0.33,-0.14 0.3,-0.22 1.36,-0.12 1.78,-0.09l-0.03 0.18zm-4.03 -1.86c0.08,0.04 0.17,0.1 0.18,0.08 0.02,-0.05 0.04,0.12 0.07,0.17l-2.62 3.06c-0.22,0.32 -0.1,0.29 -0.58,0.62 -0.22,-0.26 -0.18,0.25 -0.18,-0.32 0.31,-0.11 0.49,-0.45 0.82,-0.88l1.29 -1.64c0.16,-0.22 0.02,-0.01 0.19,-0.2 0.23,-0.25 0.4,-0.63 0.83,-0.89zm1.52 17.46l2.75 -0.02 0.04 2.28 -2.79 0.03 -0 -2.29zm0.02 -3.25l2.77 0.04 -0.03 2.76 -2.77 -0.01 0.02 -2.8zm-2.53 -10.82l2.05 0.06c0.03,0.38 0.03,0.74 0.03,1.12 0.01,1.03 0.01,0.49 -0.13,1.08l-1.92 -0.04 -0.03 -2.22zm5.62 -0.93c-0.03,-0.94 -0.18,-5.42 0.09,-5.93l-0.02 5.91 -0.07 0.01zm6.35 -33.89c-0.51,-0.25 -1.88,-0.56 -2.61,-0.13 -0.67,0.39 -0.04,1.22 -1.88,1.26l-0.16 0.35 -0.23 -0.14c0.24,-0.62 1.21,-1.42 1.93,-1.67 1.16,-0.41 2.1,-0.12 2.95,0.34zm-18.56 27.79l7.26 0c-0.05,-0.73 -0.78,-1.11 -1.66,-1.07 -0.18,-1.54 -1.53,-2.63 -3.05,-1.84 -1.08,0.56 -0.47,0.96 -1.41,1.31 -0.63,0.22 -1.24,0.76 -1.13,1.61zm1.75 9.37c0.08,-0.46 0.09,-0.08 -0.03,-0.42l-1.06 0.11c-0.2,-0.72 -1.02,-1.41 -2,-1.35 -1.56,0.09 -1.63,1.31 -1.95,1.45 -0.02,0.01 -0.06,0.03 -0.08,0.04l-0.4 0.13c-0.44,0.15 -0.76,0.43 -0.89,0.91 -0.74,0.02 -1.2,0.09 -1.44,0.62l7.58 -0.05c-0.1,0.7 -0.29,1.04 -0.22,1.78 0.83,0.51 0.37,0.32 1.49,0.4 0.12,1.77 0.02,3.9 0.02,5.7 0,1.15 -0.15,4.85 0.06,5.7 0.47,0.15 22.81,0.18 23.4,0.01 0.25,-1.06 -0.08,-9.19 0.07,-11.41 1.6,-0.1 1.12,-0.92 0.87,-2.15 -0.19,-0.94 -0.39,-1.88 -0.6,-2.82 -0.74,-3.28 -0.02,-3.2 -3.59,-3.18l-2.4 -4.64c-0.28,-0.58 -0.52,-1.03 -1.37,-1.01 -1.02,0.03 -1.5,1.44 -2.08,2.6 -1.73,3.44 -1.07,3.05 -2.8,3.05l-0.04 -5.22 -2.6 0.06c-0.3,1.09 0.11,3.82 -0.1,5.14 -0.52,0.02 -1.77,0.14 -2.15,-0.06 -0.22,-0.11 -0.81,-0.98 -1.06,-1.25 -1.03,-1.11 -1.71,0.44 -2.49,1.32 -1.87,-0.01 -3.04,-0.35 -3.35,1.03 -0.14,0.6 -0.55,3.2 -0.79,3.51zm12.32 -10.23l-0.25 0.43c0.67,-0.25 2.53,-2.27 3.22,-2.91 1.23,-1.13 1.43,-1.64 2.47,-1.62 0.71,0.01 1.41,0 2.12,0 1.39,0 2.79,0.02 4.17,-0 -0.19,-0.8 -0.78,-1.12 -1.7,-1.07 -0.03,-0.64 -0.23,-1.11 -0.57,-1.46 -0.5,-0.5 -0.89,-0.39 -1.38,-0.72 0.84,-0.6 1.58,-1.72 2.42,-2.24 0.77,0.44 0.93,0.27 1.39,-0.24 1.54,0.32 2.56,0.35 3.89,-0.38 0.49,-0.27 1.07,-0.71 1.41,-1.01 1.87,-1.68 2.55,-5.05 0.54,-6.8 -0.5,-0.43 -0.85,-0.57 -1.6,-0.91 0.09,-1.9 -0.27,-3.21 -1.48,-4.07 -1.33,-0.95 -2.89,-1.03 -4.53,-0.41 -0.49,-0.69 -0.7,-1.06 -1.43,-1.49 -0.76,-0.45 -1.4,-0.62 -2.37,-0.59 -0.49,-1.24 -1.65,-2.26 -3.29,-2.41 -1.94,-0.19 -3.24,0.98 -3.84,2.02 -1.16,-0.33 -1.6,-0.83 -3.5,-0.23 -1.83,-2.43 -6.45,-1.64 -6.93,1.71 -2.42,-0.55 -4.06,0.13 -4.97,1.76 -0.81,1.46 -0.54,3.52 0.43,4.89 0.15,0.22 0.25,0.31 0.39,0.54 -0.36,1.23 -0.77,1.49 -0.5,3.09 0.44,2.57 2.87,5.36 5.92,4.82 0.42,0.5 0.47,0.81 1.4,0.44l6.56 9.26 1.66 0.04c0.13,-0.32 0.15,-0.34 0.36,-0.43zm13.31 0.74c-1.66,-0.34 -2.39,0.6 -2.09,1.74l8.85 0.04c-0.33,-0.52 -0.67,-0.6 -1.41,-0.63 -0.47,-1.18 -1.12,-0.63 -1.53,-1.21 -0,-0 -0.16,-0.33 -0.2,-0.4 -0.17,-0.3 -0.31,-0.43 -0.6,-0.61 -1.25,-0.76 -2.74,-0.04 -3.02,1.06zm-5.5 16.23c0.46,-0.08 0.95,0.08 1.43,0.26 0.65,0.25 0.54,0.63 0.54,1.4 -0,0.9 0.1,3.1 -0.07,3.77 -0.47,0.15 -1.48,0.17 -1.98,-0.01 -0.13,-0.55 -0.19,-4.74 0.09,-5.42zm-5.12 5.44c-0.39,0.07 -1.05,0.1 -1.49,0.07 -0.77,-0.06 -0.54,-0.65 -0.54,-2.03l-0 -1.81c-0,-1.09 -0.12,-1.15 0.88,-1.48 1.47,-0.47 1.21,-0.07 1.21,2.99l-0.06 2.27zm0.58 -0.1c-0.27,-0.65 -0.09,-1.88 -0.09,-2.67 0,-0.75 -0.2,-2.09 0.12,-2.65 0.5,-0.29 2.64,-0.18 3.37,-0.13 0.86,0.06 0.55,0.92 0.56,2.88 0.01,2.15 0.27,2.7 -0.67,2.73 -0.74,0.03 -2.86,0.15 -3.29,-0.16zm4.46 -32.87c-1.54,1.74 -5.2,6.81 -6.83,8.93 -0.33,0.43 -0.62,0.91 -1.05,1.21l5.15 -9.97c0.79,0.24 0.94,0.27 1.33,-0.37l1.4 0.2zm-5.46 -1.92c-0.39,0.98 -2.37,9.3 -2.94,11.39l-0.28 0.69 1.09 -10.76c0.21,-0.43 0.43,-0.44 0.71,-0.8 0.25,-0.33 0.37,-0.58 0.54,-0.94 0.23,0.21 0.41,0.34 0.89,0.42zm-2.33 1.5c-0.02,1.56 -0.38,3.55 -0.53,5.13l-0.54 4.83c-0.08,0.22 -0.04,0.13 -0.14,0.27 -0.09,-1.03 -0.55,-8.23 -0.76,-8.57 -0.17,0.14 -0.13,-0.26 -0.12,0.45 0.04,1.93 0.7,6.17 0.57,8.09l-2.67 -10.09 1.13 0.47c0.1,0.77 0.19,1.01 1.08,0.98 1,-0.03 0.81,-0.42 0.98,-1.1l0.98 -0.45zm-4.4 -0.07l2.95 11.36c-0.45,-0.66 -2.19,-5.3 -2.64,-6.45l-2.24 -5.71c-0.03,-0.07 -0.14,-0.39 -0.17,-0.44 -0.15,-0.23 -0.03,-0.15 -0.32,-0.25l0.57 -0.21 0.13 -0.86c0.3,0.41 0.4,0.9 0.74,1.4 0.34,0.51 0.64,0.69 0.98,1.15zm-4.44 17.44c-0.6,-0.14 -1.58,-0.16 -2.1,0.16 0.09,-0.22 0.11,-0.32 0.43,-0.38 0.18,-0.04 0.5,-0.02 0.69,-0.02 0.59,0 1.05,-0.09 1.31,0.14l-0.33 0.11zm7.51 6.84l0.96 0.11 -0.96 -0.11zm-12.27 -37.26c-0.76,0.26 -1.16,0.58 -1.64,1.29 -0.72,1.08 0.55,1.2 -0.24,2.27 -0.35,0.47 -0.44,0.42 -0.18,1.21 0.57,1.74 1.21,1.92 1.79,2.79 -0.21,-0.23 -0.23,-0.23 -0.43,-0.4 -3.05,-2.53 -1.89,-6.87 0.7,-7.16zm7.11 0.97c-0.22,0.16 0.04,0.07 -0.4,0.17 -0.08,0.02 -0.27,0.01 -0.36,0.02 -0.06,0 -0.77,-0.05 -1.22,0.24 -0.26,0.18 -0.22,0.39 -0.41,0.83 -0.01,0.03 -0.02,0.05 -0.04,0.08 -0.01,0.02 -0.03,0.05 -0.04,0.07l-0.84 0.6c-0,0 -0.32,0.14 -0.32,0.15 -0.33,0.18 0.12,-0.26 -0.21,0.14 -0.21,0.24 -0.23,0.56 -0.33,0.9 -0.14,0.51 -0.16,2.26 -0.09,2.72 0.02,0.17 0.03,0.38 0.05,0.51 -0.42,-1.53 -0.53,-3.37 0.33,-4.68 0.73,-1.12 1.91,-2.01 3.88,-1.75zm10.21 32.93c0,-0.74 -0.31,-2.62 0.28,-2.83 0.23,-0.08 1.18,-0.03 1.5,-0.03 0.52,-0 1.08,-0.12 1.25,0.3 0.1,0.25 0.05,2.59 0.05,3.06 -0,2 0.56,2.23 -2.95,1.94 -0.21,-0.53 -0.14,-1.69 -0.13,-2.44zm8.38 -28.13c-0.47,-0.24 -0.68,-0.57 -1.34,-0.82 -1.05,-0.41 -0.77,-0.15 -1.44,0.22 -0.79,0.44 -0.97,-0.09 -1.5,-0.1 -0.37,-0 -1.04,0.52 -1.31,0.71 0.09,-0.52 0.64,-0.76 1.11,-0.99 0.54,-0.26 1.04,-0.41 1.71,-0.4 1.52,0.01 1.98,0.7 2.77,1.38zm-21.56 8.89c0.19,-0.21 -0.15,0 0.25,-0.21 0.19,-0.1 0.49,-0.12 0.76,-0.44l0.19 0.33c-0.17,0.26 -0.28,0.38 -0.56,0.5 -0.61,0.26 -0.63,-0.18 -0.64,-0.18zm6.86 -0.94l1.17 0c-0.04,0.63 -1.19,0.69 -1.17,-0zm13.24 -0.4c0.27,0.35 0.54,0.48 0.83,0.73 -0.26,0.19 -0.45,0.12 -0.67,-0.06 -0.25,-0.21 -0.35,-0.42 -0.16,-0.67zm-5.63 -0.86c0.27,0.06 0.88,0.55 0.96,0.76 -0.49,0.34 -1.24,-0.2 -0.96,-0.76zm-3.19 -1.74l1.19 -0.03c-0.03,0.24 -0.09,0.23 -0.22,0.36l-0.71 0.01 -0.26 -0.34zm-9.55 -0.05l1.14 -0.03c-0.08,0.56 -0.34,0.47 -0.92,0.4 -0.19,-0.18 -0.16,-0.1 -0.22,-0.38zm-7.22 -3.45c0.66,0.29 0.26,0.54 1.83,1.27 0.89,0.42 1.65,0.49 2.7,0.42 0.08,0.03 0.99,1.05 1.51,1.33 1.41,0.75 0.38,0.04 0.87,0.92 0.17,0.32 0.14,0.13 0.42,0.38 -0.17,1.25 -1.02,2.2 -1.94,2.56 -1.45,0.57 -2.51,-0.03 -3.51,-0.62 -0.44,-0.26 -0.61,-0.23 -0.92,-0.67 -0.11,-0.16 -0.14,-0.23 -0.24,-0.39 -0.41,-0.61 -0.53,-0.69 -0.85,-1.48 -0.38,-0.94 -0.71,-3.03 0.13,-3.72zm12.26 -3.12c1.37,-0.29 2.38,0.4 2.96,0.98 2.36,2.34 1.21,7.39 -1.79,8.06 -1.17,0.26 -2.22,-0.23 -2.98,-1.07 -2.33,-2.56 -1.75,-7.22 1.81,-7.98zm15.58 1.98c0.97,-0.37 2.75,-1.38 4.44,0.19 2.47,2.3 0.71,6.06 -2.28,7.32 -1.71,0.72 -3.81,0.11 -4.23,-1.14 1.41,-0.65 3.33,-3.93 2.08,-6.37zm-14.02 -2.4c0.76,-2.96 4.97,-3.98 6.66,-0.46 1.41,2.94 -0.46,7.01 -3.58,6.92 -0.05,-0.88 0.49,-2.43 -0.42,-4.29 -0.55,-1.11 -1.31,-1.86 -2.67,-2.17zm11.51 -2.62c2.01,-0.95 4.07,-0.09 4.9,1.32 0.44,0.74 0.54,1.34 0.46,2.22 -0.08,0.87 -1.32,-0.17 -3.07,1.05 -1.16,-1.11 -0.23,-0.65 -2.16,-1.6 0.36,-1.2 0.17,-1.92 -0.12,-2.99zm-16.57 -0.5c0.06,-0.42 0.29,-0.7 0.51,-1.01l0.73 -0.79c2.32,-1.65 4.96,-0.22 5.6,2 -0.23,0.24 -0.47,0.29 -0.74,0.54 -1.02,0.92 -1.02,1.39 -1.55,2.27l-1.61 0.13c-0.43,-0.74 -0.67,-2.08 -2.45,-2.89 -0.3,-0.14 -0.19,0.01 -0.48,-0.25zm-4.57 -0.81c0.37,-1.31 1.09,-2.2 2.34,-2.63 1.81,-0.62 2.95,0.54 3.67,0.99 -0.29,-0.04 -0.91,0.67 -1.14,0.94l-0.8 1.36c-1.29,-0.01 -1.7,0.07 -2.52,0.49 -0.57,-0.73 -1.3,-0.91 -1.56,-1.15zm5.62 42.66l3.25 0.01 -0 6.49 -3.26 -0 0.02 -6.5zm-1.38 -4.52l0.81 -0.01 -0.01 11.01 -0.8 -0.04 0 -10.96zm-1.1 8.83l0.62 0.01 -0.02 2.17 -0.62 0.01 0.01 -2.18zm-1.14 0.01l0.83 0.02 -0.02 2.14 -0.82 -0.01 0.01 -2.14zm-1.06 -0.01l0.75 -0 -0.03 2.18 -0.74 -0 0.02 -2.17zm-0.95 0.01l0.62 0.01 -0.02 2.14 -0.61 -0.02 0.01 -2.14zm10.27 0.58c0.24,-0.13 11.23,-0.14 11.51,0 -0.26,0.27 -5.48,0.13 -5.81,0.13 -0.72,-0 -5.42,0.14 -5.7,-0.13zm0.84 -7l9.83 0.02 -0.02 6.4c-0.84,0.11 -9.21,0.14 -9.84,0l0.02 -6.42zm-8.19 4.23l0.83 -0.01 -0.01 1.74 -0.82 -0.01 0 -1.71zm-1.22 -0.02l0.87 0.01 0 1.75 -0.86 -0.02 -0.01 -1.74zm1.23 -2.1l0.82 -0 -0 1.76 -0.83 -0.03 0.02 -1.73zm-1.21 0l0.89 0.03 0 1.72 -0.9 -0.01 0.01 -1.74zm3.9 -0.5c-0.02,-0.04 -0.06,-0.03 -0.09,-0.04l0.02 -0.4c0.58,-0.25 4.14,-0.11 5.08,-0.08l-0.03 5.37 -0.74 0.09c-0.12,0.45 -0.1,1 -0.03,1.49l0.78 0.08 -0.01 0.48 -1.3 -0c-0.15,-1.05 0.2,-6.39 -0.15,-6.77 -0.15,-0.14 0.15,-0.06 -0.35,-0.12l-2.42 0c-0.1,0 -0.42,0.01 -0.5,-0.01l-0.27 -0.09zm-5.62 -0.53l3.76 0 0.01 0.62 -2.35 0.03c-0.35,0.65 -0,3.23 -0.14,4.21l-1.29 -0.02 0.01 -4.85zm10.33 -2.24c0.26,-0.15 0.78,-0.08 1.4,-0.09l7.25 -0c0.52,0 2.35,-0.11 2.74,0.09 -0.2,0.16 -0.38,0.12 -0.73,0.12 -1.95,-0.02 -10.2,0.14 -10.67,-0.12zm0.54 -0.47c0.35,-0.63 0.66,0.13 0.68,-1.34 0.01,-0.99 -0.04,-0.95 0.34,-1.68l2.78 -5.48c0.4,-0.8 0.91,-1.97 1.37,-2.68 1,1.92 2.97,5.63 3.86,7.61 0.18,0.39 0.54,0.92 0.59,1.32 0.15,1.22 -0.35,1.52 0.42,2.04 0.18,0.12 0.18,0.01 0.24,0.2l-10.27 0.01zm-5.31 -0.79l5.03 0.05c-0.1,0.75 -1.15,0.25 -0.79,1.28l-4.24 -0.04 0.01 -1.29zm15.48 -0.01l1.51 0.02 -0 10.96 -1.1 -0 0.03 -0.47 0.77 -0.03 -0.03 -1.59 -0.77 -0.04 -0.01 -6.38c0.53,-0.24 0.34,-0.02 0.6,-0.68 0.15,-0.38 0.26,-0.53 0.3,-0.99l-1.31 -0.81zm-18.51 -3.07c-0.02,-0.55 0,-1.09 0.02,-1.61 0.04,-0.87 0.99,-1.74 1.82,-2.79 0.27,0.12 1.24,1.35 1.51,1.68 0.64,0.77 0.48,1.25 0.45,2.72l-3.81 0z"/>
 </g>
</svg>
