<?xml version="1.0" encoding="UTF-8"?>
<!DOCTYPE svg PUBLIC "-//W3C//DTD SVG 1.1//EN" "http://www.w3.org/Graphics/SVG/1.1/DTD/svg11.dtd">
<!-- Creator: CorelDRAW 2020 (64-Bit) -->
<svg xmlns="http://www.w3.org/2000/svg" xml:space="preserve" width="90.6736mm" height="100mm" version="1.1" style="shape-rendering:geometricPrecision; text-rendering:geometricPrecision; image-rendering:optimizeQuality; fill-rule:evenodd; clip-rule:evenodd"
viewBox="0 0 56.87 62.72"
 xmlns:xlink="http://www.w3.org/1999/xlink"
 xmlns:xodm="http://www.corel.com/coreldraw/odm/2003">
 <defs>
  <style type="text/css">
   <![CDATA[
    .fil0 {fill:white}
   ]]>
  </style>
 </defs>
 <g id="Capa_x0020_1">
  <metadata id="CorelCorpID_0Corel-Layer"/>
  <path class="fil0" d="M30.07 23.05c-1.9,0 -3.93,0.22 -5.63,-0.68 -0.26,-0.14 -0.86,-0.58 -1.04,-0.61 -0.29,-0.05 -1.31,0.04 -1.66,0.06 -2.32,0.15 -3.55,0.49 -5.21,1.52 -0.61,0.38 -1.4,1.07 -1.82,1.51 -0.82,0.86 -2.32,2.74 -2.72,3.95 -0.5,1.55 -1.41,1.64 -1.48,1.93l-0 1.68 -8.52 -1.05 -0.03 -5.2c-0.96,-0.41 -1.26,-0.56 -1.95,-1.32l-0.01 6.41c-0,1.98 0.14,1.81 1.96,2.09l0 23.34c-0,1.24 1.13,1.17 2.66,1.45 1.17,0.22 2.31,0.44 3.47,0.65 2.33,0.42 4.65,0.89 6.99,1.31 4.66,0.84 9.27,1.77 13.93,2.61 0.75,0.14 5.75,-1.02 6.88,-1.25l13.78 -2.82c1.14,-0.23 2.29,-0.49 3.42,-0.7 2.19,-0.41 1.82,-0.34 1.82,-4.26l0 -20.33c2.1,-0.23 1.96,-0.38 1.96,-2.35l-0 -6.15c-0.65,0.67 -1.02,0.97 -1.95,1.31l-0.01 5.21 -9.32 1.25c-0.03,-0.57 -0.01,-1.14 -0.01,-1.69 0,-1.26 0.02,-0.68 -0.4,-1.39 -0.49,-0.82 -0.2,-1.19 -1.85,-3.31 -0.3,-0.38 -0.48,-0.63 -0.8,-0.96 -0.68,-0.68 -0.93,-1.05 -1.8,-1.67 -2.06,-1.48 -4.06,-1.79 -6.8,-1.86 -0.37,-0.01 -0.43,0.23 -1.08,0.58 -0.78,0.42 -1.74,0.72 -2.78,0.72zm-24.02 -5.71l-1.15 0.98c-1.17,0.99 -2,2.32 -2.88,3.59 -0.37,0.53 -0.97,1.31 -0.26,1.97 0.19,0.18 1.52,0.78 1.88,1 2.61,1.55 2.74,2.14 4.78,3.85 0.66,0.56 1.42,0.4 1.71,-0.52 0.36,-1.14 1.45,-2.7 2.19,-3.57 1.39,-1.63 2.72,-2.95 4.79,-3.83 1.46,-0.62 3.13,-0.87 4.87,-0.95 -0.07,-0.28 -0.47,-1.8 -0.55,-1.93 -2.66,-0.07 -5.82,1.11 -7.84,2.69 -3.29,2.58 -4.46,5.34 -4.84,5.74 -0.64,-0.49 -1.2,-1.17 -2.27,-1.97 -1.12,-0.83 -1.47,-0.97 -2.61,-1.63 0.42,-0.98 1.97,-2.65 2.69,-3.29 1.68,-1.5 2.72,-1.34 4.57,-1.11 2.1,0.27 3.24,-0.24 5.01,-0.82 1.6,-0.53 3.18,-1.07 5.05,-0.81 -0.17,-1.12 -0.64,-2.23 -0.59,-3.43 0.03,-0.76 0.29,-1.63 0.68,-2.26 0.15,-0.24 0.3,-0.4 0.4,-0.6 -0.79,-0.61 -1.29,-0.92 -2.19,-1.65 -0.11,-0.09 -0.14,-0.14 -0.24,-0.22l-0.77 -0.67c-0.2,-0.16 -0.32,-0.27 -0.5,-0.48 -0.32,-0.38 -1.07,-0.99 -1.43,-1.45 -0.56,-0.71 -2.38,-2.55 -2.3,-3.55 1.05,-0.59 2.01,-0.57 3.18,-0.01 2.73,1.3 4.44,4.21 5.34,7.02 0.27,-0.12 0.52,-0.31 0.83,-0.46 0.34,-0.17 0.63,-0.23 0.93,-0.38 -0.1,-1.05 -1.5,-3.38 -2,-4.15 -1.59,-2.44 -4.75,-5.02 -7.9,-4.3 -2.01,0.46 -2.11,1.65 -2.49,2.15l-7.43 9.57c-0.25,0.33 -0.47,0.59 -0.69,0.88 -0.72,0.94 -0.98,1.21 0.47,3.06 0.21,0.27 0.52,0.61 0.74,0.82 0.16,0.15 0.27,0.22 0.42,0.37 0.17,0.16 0.27,0.2 0.4,0.36zm26.27 -8.78c0.26,0.14 0.62,0.24 0.92,0.38 0.34,0.16 0.59,0.35 0.87,0.48 0.74,-2.23 1.49,-3.52 2.93,-5.24 1.06,-1.27 3.72,-2.97 5.58,-1.76 0.08,0.73 -1.07,2.05 -1.39,2.49 -0.47,0.64 -1.28,1.44 -1.85,2 -0.3,0.3 -0.63,0.67 -0.95,0.94l-1.04 0.92c-0.36,0.29 -0.68,0.55 -1.06,0.84 -0.38,0.29 -0.75,0.53 -1.14,0.81 0.19,0.44 0.97,1.11 1.07,2.74 0.08,1.2 -0.35,2.37 -0.4,3.52 4.12,-0.3 5.94,2.16 9.91,1.67 2.37,-0.3 3.07,-0.14 4.53,1.12 0.58,0.5 0.99,0.91 1.49,1.52 0.31,0.38 1.01,1.36 1.21,1.77 -2.13,1.09 -2.32,1.45 -3.77,2.57 -0.41,0.32 -0.71,0.74 -1.12,1.03 -0.17,-0.19 -0.35,-0.58 -0.49,-0.8 -0.6,-0.93 -0.98,-1.41 -1.64,-2.28 -0.36,-0.47 -0.84,-0.99 -1.24,-1.37 -0.43,-0.41 -0.9,-0.83 -1.4,-1.22 -0.91,-0.72 -2.06,-1.41 -3.34,-1.89 -0.88,-0.33 -3.3,-0.93 -4.34,-0.83 -0.06,0.35 -0.09,0.69 -0.17,1.01 -0.07,0.31 -0.23,0.63 -0.26,0.91 3.64,-0 6.29,1.65 8.06,3.33 1.19,1.13 2.96,3.48 3.48,5.09 0.27,0.82 0.97,0.96 1.75,0.36 0.18,-0.13 0.18,-0.15 0.34,-0.31 0.14,-0.13 0.25,-0.2 0.39,-0.33 0.72,-0.62 1.23,-1.26 2.27,-2.04 0.52,-0.39 1.12,-0.79 1.74,-1.13 1.78,-0.99 2.93,-1.01 1.58,-2.94 -0.42,-0.6 -1.35,-2.01 -1.81,-2.51 -0.13,-0.15 -0.22,-0.21 -0.35,-0.36l-1.88 -1.7c0.13,-0.15 1.03,-0.8 1.56,-1.49 1.66,-2.21 1.22,-2.19 -0.15,-3.92l-7.46 -9.61c-0.42,-0.56 -0.5,-1.73 -2.52,-2.19 -3.15,-0.72 -6.35,1.91 -7.89,4.31 -0.41,0.63 -0.78,1.19 -1.14,1.94 -0.36,0.74 -0.59,1.43 -0.9,2.19zm-3.88 52.03l-0 -23.93 -10.3 -1.29c-0.07,2.93 -0.01,5.91 -0.01,8.83l-0 13.34c-0,1.38 -0.65,1.04 2.78,1.65 1.84,0.33 6.03,1.23 7.53,1.4zm1.96 -23.92l-0 23.9 7.57 -1.53 0.01 -23.37 -7.57 1.01zm15.19 20.78l7.36 -1.49 0 -22.33c-1.49,0.09 -5.04,0.7 -6.85,0.91 -0.63,0.07 -0.53,-0.2 -0.52,1.42 0.05,7.1 -0.14,14.47 0,21.48zm-41.66 -1.44l6.6 1.23 -0 -22.82 -6.59 -0.83 0 22.42zm21.52 -45.62c-1.45,0.28 -2.69,1.27 -2.87,2.77 -0.1,0.87 0.67,3.72 0.9,4.7 0.22,0.97 0.29,1.33 0.84,1.96 0.39,0.44 0.94,0.87 1.71,1.1 1,0.29 4.32,0.29 5.29,-0.05 0.76,-0.26 1.29,-0.66 1.67,-1.14 0.55,-0.7 0.57,-1.06 0.73,-2.08 0.18,-1.12 0.76,-3.96 0.5,-4.92 -0.35,-1.28 -1.67,-2.29 -3.23,-2.41 -1.03,-0.08 -4.66,-0.1 -5.55,0.07zm-7.32 23l10.31 1.3 -0 -1.53 0 -1.83 -0 -0.52 -0 -6.25 -10.31 -1.29 -0 10.13zm12.29 -8.84l-0.02 10.12 7.56 -1.01 0.02 -10.13 -7.56 1.02z"/>
 </g>
</svg>
