<?xml version="1.0" encoding="UTF-8"?>
<!DOCTYPE svg PUBLIC "-//W3C//DTD SVG 1.1//EN" "http://www.w3.org/Graphics/SVG/1.1/DTD/svg11.dtd">
<!-- Creator: CorelDRAW 2020 (64-Bit) -->
<svg xmlns="http://www.w3.org/2000/svg" xml:space="preserve" width="37.2654mm" height="100mm" version="1.1" style="shape-rendering:geometricPrecision; text-rendering:geometricPrecision; image-rendering:optimizeQuality; fill-rule:evenodd; clip-rule:evenodd"
viewBox="0 0 9.17 24.61"
 xmlns:xlink="http://www.w3.org/1999/xlink"
 xmlns:xodm="http://www.corel.com/coreldraw/odm/2003">
 <defs>
  <style type="text/css">
   <![CDATA[
    .fil0 {fill:white}
   ]]>
  </style>
 </defs>
 <g id="Capa_x0020_1">
  <metadata id="CorelCorpID_0Corel-Layer"/>
  <path class="fil0" d="M4.87 7.4c-1.47,0.96 -3.38,2.45 -4.24,3.99 -1.07,1.92 -0.7,4.08 0.61,5.8 0.38,0.49 1.31,1.17 2.05,1.43 1.04,0.37 1.44,0.19 2.49,0.3 0.07,1.08 0.39,3.27 -0.05,4.11 -0.54,1.02 -1.81,1.36 -3.12,0.8 0.27,-0.17 1.33,-0.28 1.43,-1.47 0.08,-0.87 -0.52,-1.53 -1.21,-1.68 -1.56,-0.36 -2.74,1.57 -1.2,3.09 1.42,1.39 5.03,1.28 4.85,-2.2 -0.03,-0.64 -0.25,-2.3 -0.16,-2.81 0.37,-0.19 0.73,-0.3 1.1,-0.5 2.62,-1.45 2.34,-5.94 -1.22,-6.38l-0.22 -0.04c-0.02,-0.01 -0.03,-0.01 -0.05,-0.02l-0.27 -2.54c0.35,-0.18 1.28,-1.1 1.52,-1.42 1.59,-2.13 2.05,-4.22 1.11,-6.89 -0.33,-0.94 -0.68,-1.34 -1.55,-0.59 -1.5,1.29 -2.01,3.53 -1.96,5.53 0.01,0.47 0.11,1.05 0.09,1.48zm-3.9 7.32c0,1.39 0.63,2.3 1.45,2.88 0.82,0.58 1.98,0.93 3.28,0.81 0.12,-0.38 -0.23,-4.23 -0.27,-4.98 -0.83,0.1 -1.21,0.4 -1.62,0.83 -0.58,0.6 -0.52,0.93 -0.66,1.84 -0.89,-1.19 -0.38,-3.49 2.07,-4.21l-0.15 -2.14c-0.11,0 -4.1,2.12 -4.1,4.97zm4.54 -7.83c0.45,-0.03 1.75,-1.48 1.97,-1.78 1.99,-2.67 -0.28,-4.27 -1.61,-1.49 -0.57,1.18 -0.41,1.94 -0.36,3.28zm0.73 11.42c0.9,-0.01 1.98,-1.22 1.9,-2.55 -0.07,-1.2 -1.06,-2.27 -2.21,-2.3l0.31 4.85z"/>
 </g>
</svg>
