<?xml version="1.0" encoding="UTF-8"?>
<!DOCTYPE svg PUBLIC "-//W3C//DTD SVG 1.1//EN" "http://www.w3.org/Graphics/SVG/1.1/DTD/svg11.dtd">
<!-- Creator: CorelDRAW 2020 (64-Bit) -->
<svg xmlns="http://www.w3.org/2000/svg" xml:space="preserve" width="106.929mm" height="100mm" version="1.1" style="shape-rendering:geometricPrecision; text-rendering:geometricPrecision; image-rendering:optimizeQuality; fill-rule:evenodd; clip-rule:evenodd"
viewBox="0 0 77.34 72.33"
 xmlns:xlink="http://www.w3.org/1999/xlink"
 xmlns:xodm="http://www.corel.com/coreldraw/odm/2003">
 <defs>
  <style type="text/css">
   <![CDATA[
    .fil0 {fill:white}
   ]]>
  </style>
 </defs>
 <g id="Capa_x0020_1">
  <metadata id="CorelCorpID_0Corel-Layer"/>
  <path class="fil0" d="M-0 26.5l0 45.83 50.42 0c9.03,0 17.89,-0.05 26.92,-0.05l0 -45.93c0,-0.32 -0.32,-0.47 -0.63,-0.66l-4.8 -3.16c-0.22,-0.16 -0.55,-0.44 -0.88,-0.47 0,0.39 0.05,0.59 0.05,0.93l-0 3c-0,0.37 0.06,0.54 0.05,0.93 -0,0.71 0.05,2.56 0,3 -0.03,0.31 -0.75,0.76 -1.01,0.96 -1.92,1.44 -4.39,3.17 -6.38,4.57 -0.19,0.13 -0.37,0.28 -0.57,0.41l-9.24 6.72c-1.48,1.11 -3.16,2.26 -4.63,3.37 -1.47,1.11 -3.13,2.24 -4.61,3.35l-2.3 1.68c-0.69,0.51 -1.73,1.22 -2.32,1.71 -0.19,0.16 -0.35,0.28 -0.54,0.44 -0.84,0.7 -1.08,0.21 -2.2,-0.56l-1.88 -1.37c-0.17,-0.13 -0.31,-0.22 -0.48,-0.35l-6.58 -4.78c-0.18,-0.13 -0.3,-0.23 -0.48,-0.35 -1.37,-0.94 -3.88,-2.78 -5.18,-3.76l-6.62 -4.8c-1.8,-1.32 -3.91,-2.79 -5.65,-4.11 -0.84,-0.63 -1.11,-0.86 -1.99,-1.32 0,-1.45 -0.11,-2.79 -0.1,-4.24 0,-0.38 -0.05,-0.61 -0.05,-1.03l-0.05 -4.96c0,-0.34 0.05,-0.45 0.05,-0.77 -1.62,0.86 -3.23,2.1 -4.76,3.14l-1.55 1.09c-0.34,0.25 -0.68,0.49 -1.03,0.73 -0.16,0.11 -0.98,0.62 -0.98,0.83zm13.69 -9.51c0.45,0 0.94,-0.1 1.39,-0.1 0.71,-0 2.68,-0.24 3.46,-0.26 0.79,-0.02 2,-0.17 2.79,-0.21 0.29,-0.01 0.49,-0.04 0.72,-0.05 0.96,-0.05 1.88,-0.13 2.79,-0.2 0.95,-0.07 1.89,-0.1 2.79,-0.2 0.94,-0.1 3.54,-0.2 4.2,-0.3 0.54,-0.08 2.32,-0.13 2.8,-0.2 0.87,-0.13 3.42,-0.19 4.24,-0.31 0.46,-0.07 0.94,-0.03 1.4,-0.1 0.8,-0.11 2.5,-0.15 3.47,-0.25l3.56 -0.26c0.9,-0.1 1.85,-0.13 2.79,-0.2 0.91,-0.07 1.85,-0.16 2.79,-0.2 0.92,-0.04 3.44,-0.3 4.19,-0.31 0.45,-0 0.97,-0.1 1.45,-0.1 -0.16,-0.24 -0.91,-0.74 -1.18,-0.94 -0.83,-0.62 -2.9,-1.94 -3.84,-2.56l-10.25 -6.85c-0.88,-0.59 -1.7,-1.13 -2.57,-1.72 -0.65,-0.44 -1.98,-1.34 -2.61,-1.67 -0.12,0.18 -0.5,0.43 -0.71,0.58 -0.26,0.19 -0.5,0.34 -0.77,0.52 -0.28,0.19 -0.49,0.34 -0.77,0.52l-3.84 2.62c-0.13,0.09 -0.24,0.17 -0.37,0.25l-7.27 5.03c-0.26,0.2 -0.49,0.34 -0.76,0.53 -0.14,0.1 -0.23,0.15 -0.37,0.25l-3.45 2.39c-0.28,0.18 -0.49,0.34 -0.77,0.53l-3.81 2.65c-0.35,0.23 -1.29,0.83 -1.5,1.14zm7.9 7.9c0,1.04 1.24,0.93 2.07,0.93 0.56,0 1.49,-0.12 2.22,-0.15l1.11 -0.08c0.22,-0.03 0.38,-0.01 0.6,-0.02 0.21,-0.02 0.29,-0.05 0.57,-0.05 0.26,0 0.84,-0.04 1.11,-0.08 0.51,-0.08 2.68,-0.16 3.38,-0.24 0.69,-0.07 1.5,-0.12 2.19,-0.19l4.44 -0.36c0.77,-0.08 1.48,-0.09 2.26,-0.17 0.33,-0.03 0.72,-0.08 1.09,-0.1 0.33,-0.01 0.76,-0.09 1.09,-0.1 1.39,-0.07 3.04,-0.25 4.45,-0.36 0.38,-0.03 0.74,-0.02 1.12,-0.07 0.28,-0.04 0.83,-0.08 1.15,-0.09l4.53 -0.27c0.65,-0.09 1.17,0.05 2.2,-0.18 1.91,-0.43 1.41,-1.98 0.35,-2.13 -0.33,-0.05 -5.75,0.4 -6.56,0.47 -0.4,0.03 -0.87,0.02 -1.27,0.08 -0.33,0.05 -0.88,0.07 -1.21,0.08 -0.86,0.02 -2.78,0.3 -3.62,0.31 -0.35,0 -0.85,0.07 -1.19,0.1l-13.32 0.99c-0.36,0.04 -0.79,0.08 -1.2,0.1l-3.65 0.28c-0.39,0.06 -0.81,0.06 -1.21,0.08 -0.35,0.02 -0.82,0.1 -1.19,0.1 -0.45,0.01 -0.78,0.04 -1.02,0.27 -0.23,0.22 -0.48,0.44 -0.48,0.87zm36.94 1.96c0,-0.56 -0.53,-1.03 -1.08,-1.03 -1.56,0 -3.42,0.24 -5.01,0.36 -1.58,0.12 -3.18,0.19 -4.71,0.36l-2.32 0.16c-0.37,0.01 -0.74,0.08 -1.14,0.1 -0.39,0.02 -0.76,0.08 -1.19,0.1l-3.48 0.29c-0.75,0.1 -2.67,0.14 -3.51,0.26 -0.36,0.05 -0.81,0.06 -1.18,0.06 -0.34,0.01 -0.85,0.09 -1.19,0.1 -0.41,0.02 -0.78,0.01 -1.18,0.06l-3.57 0.25c-0.32,0.01 -0.83,0.08 -1.14,0.1l-3.56 0.21c-0.54,0.01 -1.63,0.15 -2.09,0.44 -0.59,0.38 -0.63,1.17 -0.06,1.61 0.4,0.3 0.45,0.18 0.96,0.17l22.27 -1.65c0.32,-0.02 0.82,-0.09 1.14,-0.1 0.38,-0.02 0.84,-0.03 1.21,-0.08l7.06 -0.49c0.28,-0 0.33,-0.04 0.57,-0.05 0.87,-0.05 3.2,0.06 3.2,-1.24zm-36.73 7.28c0,0.67 0.28,0.96 1,1.07 0.68,0.1 2.76,-0.14 3.49,-0.19l2.56 -0.23c0.23,-0.03 0.64,-0.08 0.85,-0.08 0.75,-0.02 2.92,-0.11 3.45,-0.27 1.21,-0.37 0.96,-1.44 0.61,-1.73 -0.25,-0.21 -0.37,-0.32 -0.6,-0.33 -0.29,-0.02 -0.54,0.05 -0.88,0.06l-0.87 0.06c-1.62,0.18 -3.93,0.27 -5.69,0.41l-2.17 0.15c-0.18,0.01 -0.67,0.03 -0.86,0.07 -0.48,0.08 -0.9,0.48 -0.9,1.01z"/>
 </g>
</svg>
