<?xml version="1.0" encoding="UTF-8"?>
<!DOCTYPE svg PUBLIC "-//W3C//DTD SVG 1.1//EN" "http://www.w3.org/Graphics/SVG/1.1/DTD/svg11.dtd">
<!-- Creator: CorelDRAW 2020 (64-Bit) -->
<svg xmlns="http://www.w3.org/2000/svg" xml:space="preserve" width="415.055mm" height="395.394mm" version="1.1" style="shape-rendering:geometricPrecision; text-rendering:geometricPrecision; image-rendering:optimizeQuality; fill-rule:evenodd; clip-rule:evenodd"
viewBox="0 0 21419.41 20404.82"
 xmlns:xlink="http://www.w3.org/1999/xlink"
 xmlns:xodm="http://www.corel.com/coreldraw/odm/2003">
 <defs>
  <style type="text/css">
   <![CDATA[
    .fil1 {fill:#FEDD52}
    .fil0 {fill:#FFCD04}
   ]]>
  </style>
 </defs>
 <g id="Capa_x0020_1">
  <metadata id="CorelCorpID_0Corel-Layer"/>
  <path class="fil0" d="M10614.8 21.49c-211.49,77.41 -232.52,219.46 -327.54,404.79 -83.8,163.45 -161.2,329.13 -245.81,499.38l-1955.62 3961.63c-212.48,425.93 -511.93,1074.24 -727.54,1475.04 -109.1,202.81 -264.53,187.67 -521.62,226.74 -416.52,63.29 -883.89,145.46 -1300.13,188.53 -428.31,44.32 -861.99,127.52 -1292.48,186.05 -780.38,106.11 -1803.68,246.3 -2573.02,376.52 -434.27,73.51 -872.1,116.9 -1308.92,188.17 -210.31,34.32 -368.09,130.9 -361.94,363.39 4.69,177.42 207.45,334.99 312.88,436.49 255.61,246.09 477.23,461.38 756.71,736.26 487.2,479.18 1015.25,1011.27 1502.64,1464.85 502.77,467.89 937.51,926.21 1493.88,1455.16 290.08,275.78 479.08,464.7 747.12,727.94 119.96,117.8 305.91,256.95 318.98,422.89 8.9,112.98 -493.35,2926.2 -535.52,3169.91 -146.3,845.47 -278.81,1707.86 -434.81,2532.53 -39.85,210.68 -66.36,414.74 -105.8,623.09 -28.2,148.96 -107.6,528.09 -89.1,665.42 23.89,177.4 225.88,334.02 447.73,259.54l5836.98 -3064.67c122.4,-64.27 358.67,-230.41 535.84,-187.22 115.93,28.25 5477.91,2872.09 5818.19,3046.93 110.49,56.77 371.37,222.53 510.59,222.45 234.65,-0.12 355.83,-184.81 331.32,-423.69 -42.21,-411.35 -160.77,-867.75 -219.23,-1278.06 -60.45,-424.32 -154.09,-832.86 -215.5,-1255.38 -61.9,-425.85 -149.92,-836.8 -216.31,-1261.82 -133.56,-854.99 -294.84,-1692.28 -434.22,-2537.66 -114.28,-693.11 -121.87,-589.51 323.98,-1014.5l2259.27 -2201.15c280.64,-271.01 503.31,-474.78 746.11,-728.66 226.48,-236.82 459.66,-436.55 746.29,-728.23 234.7,-238.84 504.47,-491.6 746.75,-727.8 99.13,-96.64 310.36,-246.81 206.37,-496.07 -86.59,-207.53 -269,-220.15 -498.15,-245.99 -433.62,-48.89 -861.46,-132.52 -1285.26,-186.48 -439.23,-55.93 -882.74,-115.47 -1317.2,-186.67 -855.6,-140.22 -1735,-233.52 -2581.14,-379.85 -415.27,-71.81 -872.84,-130.47 -1288.41,-186.85 -282.6,-38.34 -310.24,-89.12 -416.88,-312.09 -78.34,-163.8 -166.47,-327.66 -246.83,-499.33 -316.95,-677.07 -660.48,-1333.76 -980.97,-1988.23l-1714.44 -3472.59c-75.73,-152.28 -203.62,-359.88 -447.26,-270.71z"/>
  <path class="fil1" d="M1462.01 7891.69c85.52,45.57 1643.34,87.24 1891.1,98.47 622.44,28.23 1279.66,84.41 1893.66,92.86 625.93,8.61 1259.88,71.78 1891.86,85.69 344.17,7.57 587.52,75.55 892.58,-59.13 224.68,-99.2 390.07,-284.53 477.14,-523.25l1337.4 -3618.1c84.73,-235.15 197.31,-491.97 269.98,-724.96 119.44,-382.96 270.02,-710.99 398.52,-1081.52l115.63 -318.61c-1.85,-59.21 10,-18.87 -20.66,-56.08l-315.55 627.03c-394.8,805.41 -890.71,1700.4 -1297.51,2511.21l-977.72 1896.8c-285.07,527.2 -631.77,544.06 -1315.61,583.5 -291.96,16.84 -571.91,51.35 -870.63,76.37l-647.07 62.51c-73.16,7.06 -168.12,4.96 -245.1,14.16l-404.72 50.77c-474.05,46.6 -2990.3,250.83 -3073.3,282.27z"/>
 </g>
</svg>
