<?xml version="1.0" encoding="UTF-8"?>
<!DOCTYPE svg PUBLIC "-//W3C//DTD SVG 1.1//EN" "http://www.w3.org/Graphics/SVG/1.1/DTD/svg11.dtd">
<!-- Creator: CorelDRAW 2020 (64-Bit) -->
<svg xmlns="http://www.w3.org/2000/svg" xml:space="preserve" width="74.4834mm" height="100mm" version="1.1" style="shape-rendering:geometricPrecision; text-rendering:geometricPrecision; image-rendering:optimizeQuality; fill-rule:evenodd; clip-rule:evenodd"
viewBox="0 0 40.02 53.73"
 xmlns:xlink="http://www.w3.org/1999/xlink"
 xmlns:xodm="http://www.corel.com/coreldraw/odm/2003">
 <defs>
  <style type="text/css">
   <![CDATA[
    .fil0 {fill:#FEFEFE}
   ]]>
  </style>
 </defs>
 <g id="Capa_x0020_1">
  <metadata id="CorelCorpID_0Corel-Layer"/>
  <path class="fil0" d="M0.08 15.39l0 27.67c0,0.9 -0.04,1.69 -0.04,2.57 0,0.28 -0.03,0.53 -0.04,0.8l0 0.47c0.07,1.31 0.15,2.05 0.68,3.31 0.22,0.53 0.69,1.14 1.08,1.57 0.29,0.33 1.12,0.92 1.51,1.14l0.91 0.39c1.17,0.39 2.24,0.42 3.57,0.42 0.47,0 0.79,-0.04 1.27,-0.04l21.95 0c0.3,0 0.7,-0.02 1,0 0.18,0.02 0.38,0.03 0.58,0.04l0.45 0c0.17,-0.01 0.22,-0.04 0.43,-0.04 0.16,-0 0.34,0.01 0.5,0 0.91,-0.03 1.7,-0.27 2.48,-0.59 0.25,-0.1 0.43,-0.22 0.66,-0.34 0.35,-0.19 0.87,-0.6 1.14,-0.9 0.68,-0.77 0.76,-0.81 1.26,-1.81 0.76,-1.52 0.54,-3.86 0.54,-5.49l0 -30.51c0,-1.26 0.08,-2.86 -0.04,-4.02 -0.14,-1.39 -0.67,-2.68 -1.54,-3.53 -0.09,-0.09 -0.15,-0.18 -0.24,-0.26 -1.36,-1.26 -2.75,-1.82 -4.82,-1.82l-3.68 0.04 0 2.88c0.47,0 0.41,0.03 0.65,0.04 0.17,0.01 0.2,-0.02 0.31,-0.03l2.87 -0.01c0.58,0 1.09,0.08 1.51,0.25 0.82,0.33 1.45,0.92 1.8,1.73 0.15,0.36 0.26,1 0.26,1.51l0 36c0,0.84 -0.03,1.7 -0.43,2.37 -0.69,1.14 -1.8,1.59 -3.17,1.59l-26.83 0c-1.06,0 -1.86,-0.21 -2.45,-0.7 -0.57,-0.47 -1.06,-1.1 -1.15,-2.03 -0.1,-1 -0.04,-4.98 -0.04,-6.29l0 -29.24c0,-0.76 -0.12,-1.42 0.01,-2.33 0.27,-1.81 1.62,-2.85 3.52,-2.85l3.84 0 0 -2.88c-2.64,0 -5.63,-0.42 -7.76,1.18 -0.41,0.31 -0.68,0.54 -1,0.92 -0.06,0.07 -0.1,0.09 -0.15,0.16 -0.82,0.91 -1.39,2.43 -1.37,3.69 0,0.25 -0.03,0.33 -0.04,0.54 -0.02,0.71 -0.04,1.55 0.03,2.19 0.07,0.6 0.01,1.62 0.01,2.26zm16.27 -11.59c-0.82,0 -1.64,0 -2.46,0 -0.97,0 -1.69,-0.19 -1.69,0.81l0 4.87c0,0.24 0.04,0.6 0.16,0.72 0.12,0.12 0.47,0.2 0.72,0.2l13.93 0c1,0 0.81,-0.66 0.81,-1.61 0,-0.7 -0.07,-1.8 0.01,-2.45 0.07,-0.65 0.01,-0.66 -0.01,-1.16 -0.02,-0.78 0.24,-1.42 -1.03,-1.42 -0.41,0 -0.74,0.04 -1.19,0.04l-1.92 0c0,-1.07 -0.32,-1.95 -1.03,-2.66 -0.69,-0.69 -1.52,-1.08 -2.37,-1.14l-0.51 0c-0.85,0.06 -1.69,0.45 -2.41,1.16 -0.48,0.48 -0.77,1.13 -0.9,1.82 -0.04,0.23 -0.05,0.59 -0.1,0.82zm2 25.33l0 2.07c1.92,0 3.72,0.04 5.64,0.04l8.9 0 0.04 -2.23 -14.47 0c-0.09,0 -0.12,0.03 -0.12,0.12zm-7.14 11.9c-0.15,0 -0.79,-0.62 -0.95,-0.78l-0.9 -0.82c-0.86,-0.86 -0.75,-0.54 -1.52,0.23l-0.36 0.4c-0.46,0.46 -0.56,0.51 0.52,1.42 0.07,0.06 0.08,0.05 0.15,0.12l2.69 2.49c0.73,0.73 0.75,0.47 1.27,-0.21 0.35,-0.45 0.88,-1.01 1.31,-1.57 0.13,-0.17 0.24,-0.29 0.38,-0.47l3.38 -4.15c0.09,-0.12 0.56,-0.51 0.2,-0.81l-1.07 -0.85c-0.56,-0.45 -0.53,-0.48 -1.15,0.29 -0.1,0.12 -0.17,0.22 -0.27,0.34l-0.83 1.01c-0.19,0.23 -0.36,0.44 -0.55,0.68 -0.19,0.24 -0.36,0.44 -0.56,0.67l-1.38 1.69c-0.08,0.11 -0.2,0.29 -0.36,0.29zm0.04 -10.71c-0.28,0 -0.22,-0.08 -0.64,-0.43 -0.09,-0.07 -0.15,-0.15 -0.23,-0.23l-1.28 -1.18c-0.37,-0.29 -0.46,-0.48 -1.1,0.28 -0.15,0.18 -0.28,0.36 -0.44,0.52 -0.58,0.58 -0.47,0.54 -0.21,0.88l3.23 2.98c0.34,0.28 0.48,0.62 0.89,0.72 0.25,-0.16 0.99,-1.05 1.19,-1.3l2.99 -3.68c0.12,-0.16 0.25,-0.3 0.38,-0.47l0.76 -0.93c0.18,-0.2 0.7,-0.77 0.7,-1.03 0,-0.21 -1.03,-0.97 -1.26,-1.16 -0.68,-0.56 -0.68,-0.05 -1.65,1.05l-2.01 2.44c-0.07,0.09 -0.12,0.14 -0.19,0.23 -0.17,0.21 -1,1.31 -1.15,1.31zm-0.04 -10.67c-0.18,0 -0.51,-0.39 -0.65,-0.5 -0.18,-0.14 -1.76,-1.65 -1.84,-1.65 -0.26,0 -0.83,0.74 -1.03,0.97 -0.16,0.18 -0.55,0.47 -0.55,0.68 0,0.23 0.75,0.81 1.03,1.08 0.5,0.5 1.11,1 1.63,1.52l0.85 0.77c0.12,0.12 0.16,0.15 0.29,0.25 0.29,0.24 0.19,0.37 0.7,0.37 0.05,-0.2 2.6,-3.19 2.96,-3.65 0.24,-0.31 0.48,-0.6 0.74,-0.91l0.74 -0.91c0.13,-0.16 0.24,-0.29 0.36,-0.44 0.21,-0.27 1.07,-1.2 1.07,-1.46 0,-0.27 -0.56,-0.58 -0.79,-0.78 -1.29,-1.1 -0.8,-0.79 -2.36,0.96l-1.4 1.71c-0.19,0.24 -0.36,0.44 -0.56,0.67l-0.82 1.02c-0.08,0.11 -0.2,0.3 -0.36,0.3zm7.14 22.26l14.58 0 0 -2.19 -14.58 0 0 2.19zm0 -21.38l14.58 0 0 -2.19 -14.58 0 0 2.19z"/>
 </g>
</svg>
