<?xml version="1.0" encoding="UTF-8"?>
<!DOCTYPE svg PUBLIC "-//W3C//DTD SVG 1.1//EN" "http://www.w3.org/Graphics/SVG/1.1/DTD/svg11.dtd">
<!-- Creator: CorelDRAW 2020 (64-Bit) -->
<svg xmlns="http://www.w3.org/2000/svg" xml:space="preserve" width="2024.45mm" height="398.495mm" version="1.1" style="shape-rendering:geometricPrecision; text-rendering:geometricPrecision; image-rendering:optimizeQuality; fill-rule:evenodd; clip-rule:evenodd"
viewBox="0 0 255625.66 50317.54"
 xmlns:xlink="http://www.w3.org/1999/xlink"
 xmlns:xodm="http://www.corel.com/coreldraw/odm/2003">
 <defs>
  <style type="text/css">
   <![CDATA[
    .str0 {stroke:#D1AC78;stroke-width:9.62;stroke-miterlimit:22.9256}
    .fil0 {fill:#63D5DA}
    .fil3 {fill:#CF5646}
    .fil1 {fill:#CF5646}
    .fil2 {fill:#D1AC78}
    .fil4 {fill:#DAA651}
    .fil6 {fill:#63D5DA;fill-rule:nonzero}
    .fil5 {fill:#CF5646;fill-rule:nonzero}
    .fil9 {fill:#D14F3D;fill-rule:nonzero}
    .fil8 {fill:#D1AC78;fill-rule:nonzero}
    .fil7 {fill:#DAA651;fill-rule:nonzero}
   ]]>
  </style>
 </defs>
 <g id="Capa_x0020_1">
  <metadata id="CorelCorpID_0Corel-Layer"/>
  <g id="_2300233482656">
   <path class="fil0" d="M232888.68 4991.23c-2060.44,529.99 -3311.6,2756.41 -4092.74,4546.63 -967.01,2215.96 -1427.46,4508.39 -1653.04,7102.29 -125.83,1447.57 -372.33,2307.91 -123.54,3894.64 414.25,2642.08 534.7,4424.11 2403.09,6341.93 711.07,729.86 1568.98,1458.91 2757.81,1596.75 2672.87,310.02 3658.52,-2294.57 4319.28,-4228.58 882.22,-2582.19 1296.61,-4335.49 1470.77,-7221.35 251.74,-4168.77 301.32,-13417.03 -5081.63,-12032.31zm-2886.52 14400.83c-5.08,5172.99 2182.08,9453.88 3716.36,4569.84 750.19,-2387.99 1488.6,-8289.87 1500.16,-10681.99 17.83,-3668.47 506.12,-4289.66 -1286,-6744.24 -1254.12,-48.34 -1811.08,973.63 -2259.36,1877.66 -585.62,1180.88 -541.64,2018.75 -916.55,3323.32 -591.37,2057.72 -747.4,5283.04 -754.62,7655.41z"/>
   <path class="fil1" d="M219504.5 6955.9c-2206.9,484.01 -2932.63,1963.12 -3478.99,2531.05 -1435.78,1492.22 -2634.34,5024.39 -2883.2,7427.04 -181.23,1750.43 -388.02,1979.18 -53.85,3885.8 446.52,2547.34 896.51,3738.38 2938.09,5252.55 2136.47,1584.45 5439.53,1632.19 6862.72,-842.73 241.27,-419.55 499.71,-935.63 731.84,-1396.14 1043.85,-2070.61 1515.06,-3860.38 1755.82,-6525.96 192.42,-2130.36 165.54,-5549.89 -618.19,-7457.91 -960.53,-2338.19 -2794.65,-3413.26 -5254.24,-2873.69zm705.19 1400.78c-1469.45,330.65 -2135.66,1667.77 -2578.06,3094.28 -454.77,1466.27 -1009.44,2979.63 -1047.39,4697.28 -38.02,1718.39 -453.67,3649.98 -25.57,5283.05 373.67,1425.46 699.37,3332.6 2056.47,3666.11 2987.23,734.22 3857.52,-11405.14 3760.78,-13320.22 -44.21,-874.63 -121.71,-1758.53 -564.84,-2363.97 -374.48,-511.65 -821.14,-1232.01 -1601.39,-1056.53z"/>
   <path class="fil2" d="M200229.41 5919.05c130.32,408.21 258.07,369.69 773.91,598.73 1126.29,500.15 1120.4,961.05 979.1,3518.91 -209.75,3797.77 -88.26,7788.55 -110.43,11600.88 -5.45,936.66 -24.69,1942.36 26.44,2870.9 86.72,1572.96 -623.4,1573.48 -561.15,2521.41 742.75,272.8 1874.94,220.12 2688.86,22.61 948.15,-230.15 1700.41,-133.64 2592.28,-265.81 3682.61,-545.76 5125.91,-4592.01 4164.58,-6960.7 -1159.88,-2857.71 -2153.93,-2402.34 -2561.26,-3303.2 270.82,-674.39 4382.86,-3794.75 1291.39,-8528.87 -542.07,-830.19 -717.71,-902.1 -1499,-1501.56 -2037.3,-1563.31 -7498.57,-742.68 -7784.71,-573.31zm4688.9 12267.18c-650.66,221.45 -416.84,2025.96 -400.26,2702.85l9.51 4619.64c63.94,705.55 294.02,548.56 943.36,378.6 955.38,-250.11 1734.75,-406.52 2232.91,-1020.28 900.85,-1109.79 1887.68,-2582.33 1292.49,-4512.89 -284.23,-922 -535.81,-1524.92 -1212.12,-1907.07 -548.78,-310.08 -2234.38,-475.83 -2865.89,-260.86zm-71.39 -11269.45c-88.19,230.45 -51.8,4270.29 -40.22,4865.56 35.65,1825.72 -176.6,3378.27 -234.28,5116.25 919.49,-97.53 2194.9,-1297.43 2725.4,-1791.83 1290.57,-1202.69 1816,-5181.31 600.64,-6993.62 -737.97,-1100.36 -1886.94,-1733.05 -3051.54,-1196.36z"/>
   <path class="fil2" d="M250536.59 6338.75c-57.1,1273.64 1685.01,101.81 -324.45,3031.29 -674.62,983.43 -1356.52,1882.82 -1984.94,2886.66 -599.61,957.8 -3453.27,5811.43 -3834.45,5991.85 -294.61,-551.29 -232.44,-7021.47 -307.65,-8587.95 -67.4,-1404.84 628.34,-1727.08 490.06,-2421.13 -843.54,10.38 -3907.53,-189.34 -4403.34,301.32 360.33,707.75 864.68,-107.42 910.13,1990.96l312.59 8367.16c49.51,1889.24 26.82,3825.84 70.21,5738.19 19.52,863.06 129.3,1788.81 165.98,2742.35 75.16,1950.16 -456.39,1207.7 -722.12,2244.18 536.69,402.99 5073.08,278.47 5444.02,0 -617.81,-989.48 -1289.99,615.23 -1769.96,-4179.38 -196.18,-1959.96 -483.88,-2550.22 421.62,-3689.33 252.03,-317.07 418.75,-666.42 760.66,-906.66 719.4,317.96 4222.18,4523.94 4903.93,5365.33 1252.04,1545.33 126.65,1475.12 -48.4,2277.55 995.15,98.58 4357.44,172.91 5005.16,-239.8 -108.15,-632.39 -701.2,-535.52 -1178.44,-1071.69 -465.16,-522.55 -697.96,-645.66 -1155.61,-1090.64 -373.52,-363.28 -656.33,-788.21 -1011.5,-1234.95l-2219.8 -2393.66c-417.8,-452.5 -670.41,-801.56 -1116.79,-1255.88 -474.15,-482.55 -1948.97,-2068.25 -1755.37,-2736.74l5033.52 -8708.33c480.63,-618.84 984.1,-1285.35 1592.33,-1777.77 420.74,-340.74 459.13,-219.03 596.75,-688.39 -521.23,-310.52 -1033.32,-75.22 -1822.26,66.61 -1018.43,183.14 -1193.19,20.99 -2051.9,-21.15z"/>
   <path class="fil2 str0" d="M7936.44 2478.23c-2245.66,429.5 -4226.75,2652.68 -5303.38,4460.35 -2308.27,3875.56 -3809.33,11220.9 -1413.39,15596.98 1017.77,1858.88 1939.84,2598.91 3815.37,3537.85 1905.36,953.96 4636.66,684.77 5749.98,-501.34 891.86,-950.14 1355.03,-1646.33 1966.07,-2910.83 1906.76,-3946.22 2436.67,-8050.15 2163.5,-12506.09 -263.89,-4303.22 -1848.05,-8658.24 -6978.15,-7676.92zm845.89 1673.08c-1646.77,346.62 -2683.56,1927.9 -3183.42,3626.25 -544.5,1849.95 -1206.15,3558.69 -1256.98,5628.27 -50.53,2061.62 -520.92,4392.5 -35.14,6401.15 407.26,1683.91 925.9,3968.76 2517.42,4357.3 2606.65,636.29 3758.21,-7606.43 3991.37,-9431.71 261.24,-2045.78 1051.88,-7455.32 -184.1,-9224.77 -457.07,-654.35 -919.94,-1552.11 -1849.16,-1356.51z"/>
   <path class="fil3" d="M30597.98 4457.18c-111.39,1146.33 565.57,493.6 776.64,2037.31 680.94,4979.45 1397.41,7596.26 1642.73,13020.61 42.29,934.67 157.13,1730.1 231.54,2619.75 160.61,1918.77 -456.17,1497.22 -493.45,2519.57 1304.21,239.87 4095.68,88.48 5295.72,-267.65 61.67,-1531.26 -1313.64,155.89 -1747.33,-3026.43 -95.93,-704.08 -505.32,-3871.51 -450.79,-4267.33l3301.65 -589.52c513.19,1059.11 1661.72,4808.54 1996.27,6141.25 380.8,1517.18 1822.92,4247.16 2675.53,5549.96 406.51,621.27 1416.11,1811.87 1874.87,2125.93 1430.84,979.61 4493.22,2042.84 5599.38,-536.1 294.03,-685.59 649.79,-3057.07 -663.56,-2990.17 -520.63,639.17 88.78,4507.14 -2836.49,2170.36 -1147.66,-916.78 -1993.62,-2013.96 -2646.05,-3719.67 -832.49,-2176.62 -3200.21,-7343.35 -3040.13,-9768.83 807.07,-319.36 1630.35,-1007.23 2198.06,-1536.42 693.39,-646.17 1155.68,-1212.64 1144.03,-2657.48 -17.16,-2125.35 -1169.01,-4449.38 -2219.49,-5447.85 -1638.16,-1557.05 -2887.48,-1533.99 -5627.98,-1856.08 -1687.74,-198.32 -5863.13,-286.21 -7011.16,478.79zm5085.32 11292.51c1078.77,5.15 3731.68,-1004.44 4419.03,-1531.71 1430.77,-1097.63 1850.33,-1827.28 1710.27,-4310.96 -94.95,-1684.64 -649.19,-3381.14 -2005.55,-4014.8 -1523.81,-711.95 -3181.21,-1050.77 -5258.37,-828.06 -216.01,1429.15 762.21,6017.99 948.37,7864.56 92.47,917.22 67.05,1926.59 186.25,2820.96z"/>
   <path class="fil0" d="M25723.45 6809.14c678.73,984.99 1055.63,-513.19 1122.01,3850.22 44.13,2896.39 -145.29,11591.16 -2509.54,12747.51 -3221.73,1575.68 -2920.93,-4561.81 -3036.96,-6631.38l-316.49 -7247.34c-12.3,-1516.45 738.27,-1005.18 762.13,-1661.66l-4946.37 9.65c525.13,959.8 969.73,-292.84 1336.33,1703.51 166.49,906.89 187.48,1821.38 301.82,2752.59 302.2,2462.32 211.82,7910.61 1459.95,10467.67 867.19,1776.65 2419.74,2008.57 4299.24,1869.41 3504.48,-259.47 4331.52,-3931.84 4787.76,-7343.79 130.47,-975.33 340.65,-7557.28 218.65,-8596.05 -195.44,-1663.43 529.04,-1376.55 842.07,-2174.63 -606.84,-83.4 -3888.82,41.47 -4320.61,254.31z"/>
   <path class="fil2" d="M166791.07 26876.42c972.38,238.11 4406.36,-18.27 5421.33,-245.62 64.9,-970.47 -519.46,-681.39 -1171.67,-1261.54 -764.48,-680.14 -1131.74,-5909.7 -1105.59,-6222l3448.19 -667.24 2039.96 6358.29c496.25,1916.06 2957.24,6772.91 4653.82,7836.65 3648.87,2287.87 6271.94,585.4 5931.66,-2449.21 -88.55,-789.9 -164.07,-1254.18 -986.25,-1111.85 -603.36,379.2 384.2,4667.38 -2888.35,2127.27 -2120.35,-1645.81 -3529.38,-5635.19 -4545.09,-8437.29 -349.79,-964.72 -1317.17,-4376.75 -1212.33,-5360.55 1339.04,-669.09 3013.82,-1772.54 3331.78,-3504.41 336.61,-1833.24 -603.73,-4141.51 -1388.63,-5333.3 -972.38,-1476.45 -1959.37,-2216.7 -4234.56,-2619.9 -1282.63,-227.27 -8274.56,-769.86 -9336.3,100.94 -527.79,432.89 -70.95,885.89 222.26,1151.85 462.95,419.92 405.41,541.11 489.03,1256.39 231.19,1978.08 565.43,4000.21 893.49,5982.27 651.18,3935.01 551.8,5914.49 909.33,9404.59 53.49,522.78 184.25,1210.94 61.67,1715.82 -163.63,673.43 -495.59,433.18 -533.75,1278.85zm2943.68 -9175.26c835.88,192.51 5291.09,-1131.89 6046.07,-3076.66 643.52,-1657.68 545.61,-5934.68 -1847.02,-6997.17 -1663.43,-738.7 -3213.03,-1011.14 -5363.87,-822.91 -89.36,1030.14 351.79,4270.37 564.76,5374.7 395.11,2047.77 496.99,3355.21 600.06,5522.03z"/>
   <path class="fil4" d="M68203.62 783.12c184.1,289.46 -123.18,44.86 363.64,314.06 89.95,49.74 316.71,129.15 437.17,184.48 173.78,79.85 652.43,317.23 813.18,433.7 443.13,321.06 620.02,1149.87 776.12,1726.72 445.79,1646.48 -33.22,1189.43 -927.96,3734.77 -1249.68,3555.32 -2918.78,7495.92 -3775.73,11207.26 -687.28,2976.55 -785.48,2143.47 -1303.92,3677.97 -465.45,1377.66 -565.86,2473.52 -1366.97,3618.44 -768.23,1097.86 -2468.51,1079.66 -3348.21,1721.93 143.06,393.1 -190.88,311.56 568.37,434.44 161.56,26.15 757.12,16.93 952.21,13.4 630.03,-11.49 1151.7,17.1 1766.41,60.79 764.56,54.3 2849.76,116.99 3317.94,-431.35 -313.32,-869.17 -924.58,-370.56 -1198.63,-1162.61 -253.95,-733.99 1031.47,-4451.74 1321.29,-5360.41 238.91,-748.86 639.02,-627.46 1443.44,-785.04l6620.56 -349.27 781.35 3967.34c110.8,514.15 72.72,835.14 225.59,1398.43 1146.55,4226.16 -1355.41,2848.13 -1416.85,4531.68l6356.96 -69.11c337.78,-8.84 654.41,3.69 984.91,-56.14 544.05,-98.35 524.53,-80.52 704.44,-493.16 -286.5,-493.29 -2090.13,-1224.93 -2470.12,-2209.48 -304.78,-789.46 -1279.23,-6199.51 -1670.94,-7814.32 -160.16,-660.02 -350.46,-1218.46 -527.49,-1834.79l-1166.3 -5938.87c-370.42,-1990.76 -845.52,-3586.98 -1260.52,-5866.61 -209.15,-1148.76 -1105.07,-2787.42 -615.16,-3687.1 317.45,-582.88 882.58,-894.44 920.97,-1466.13 -745.92,-586.65 -2744.77,-78.24 -3760.19,-107.42 -617.51,-17.75 -2549.84,53.71 -3151.95,322.31 -360.85,160.97 -197.22,71.83 -393.63,284.08zm-709.97 17955.56c1373.89,99.98 2155.92,45.61 3488.86,-140.64 917.2,-128.19 2611.36,-119.41 3310.94,-309.71 124.8,-558.42 -992.73,-4647.19 -1173.51,-5764.63 -174.83,-1080.62 -739.52,-3031.44 -1139.92,-4112.34 -202.31,-545.91 -100.94,-1092.4 -230.74,-1347.74 -622.96,269.04 -843.39,2068.46 -1117.59,2829.19 -312.67,867.34 -798.16,1859.98 -1160.92,2823.98 -431.87,1147.87 -2058.37,4979 -1977.12,6021.89z"/>
   <path class="fil2" d="M129842.79 4026.65c136.81,550.32 245.54,447.33 673.43,724.33 269.19,1688.85 -741.58,14761.24 -882.81,15096.31l-115.22 -118.47c-83.91,-134.53 16.06,135.7 -128.71,-240.39l-2238.5 -7375.17c-433.04,-1267.89 -780.41,-2511.24 -1257.06,-3859.65 -300.51,-850.02 -532.2,-2316.82 98.79,-3124.4 314.73,-402.77 549.51,-155.89 478.34,-803.54l-5015.25 -52.76c-187.27,996.11 1075.9,777.83 1196.71,1871.33l-446.37 9236.41c-31.76,1996.41 -260.64,3963 -379.7,5991.11 -34.55,588.7 -20.04,4240.89 -228.9,4564.75 -352.21,546.13 -601.89,148.08 -669.07,1162.46 953.31,-73.37 1317.6,-251.52 2467.4,-236.55 870.5,11.28 1547.98,71.9 2250.67,-231.11 -92.61,-772.22 -522.03,-496.1 -941.97,-1083.19 -333.36,-465.97 -178.22,-1209.83 -155.45,-1810.92 50.91,-1343.02 68.51,-2658.72 110.66,-3991.88 83.02,-2622.71 412.41,-5093.71 421.09,-7813.37 532.58,311.77 604.7,895.32 924.73,1843.11 234.2,693.62 325.56,1380.23 515.62,2099.2 359.16,1358.94 2242.56,5916.77 2850.65,7627.12 417.79,1175.21 485.79,3549.92 2008.05,3220.17 706.88,-1205.92 758.23,-9860.54 1094.92,-12087.04 393.54,-2602.36 310.15,-7800.62 644.1,-9333.94 277.6,-1274.23 989.92,-1512.26 1166.6,-2271.96 -621.86,-248.64 -1632.78,96.36 -2223.33,310.82 -713.51,259.17 -1697.17,210.11 -2219.43,687.21z"/>
   <path class="fil1" d="M80873.85 8509.78c1365.13,766.84 1041.13,1716.25 1371.17,3327.51 276.78,1351.36 237.45,3128.67 237.6,4539.62 0.14,1564.71 146.16,3036.52 138.64,4616.11 -16.14,3420.63 -1755.67,1812.16 -1759.78,3118.43 1558.3,599.17 5953.9,-1143.23 7460.18,-2016.89 1872.8,-1086.37 3582.93,-3084.55 3854.56,-5858.21 285.85,-2919.22 -340.22,-5017.02 -2964.31,-6721.18 -2408.18,-1563.98 -7344.31,-1656.8 -8338.06,-1005.39zm4311.62 13810.36c1056.01,90.69 2521.4,-1767.97 2997.4,-2483.98 878.6,-1321.52 1261.92,-2495.92 1288.88,-4455.42 46.63,-3387.49 -2038.41,-6461.21 -5031.91,-6385.55l745.63 13324.95z"/>
   <path class="fil2" d="M89259.58 5773.1c1566.47,982.26 1396.58,-634.46 3674,4024.23 439.07,898.13 766.62,1777.9 1176.67,2686.35 933.42,2067.96 1358.58,3464.55 2341.64,5523 884.79,1852.76 1782.84,4687.86 2806.52,6914.13 268.16,583.19 242.08,1013.13 809.21,1233.77 570.8,-534.56 1273.41,-3794.08 1637.71,-4771.77 965.69,-2591.99 2591.03,-7078.42 3321.55,-9656.11l1240.33 -3625.37c443.13,-532.43 639.98,-93.41 946.9,-706.44 -602.42,-282.01 -5213.51,-242.89 -6248.37,-209.08 -36.54,858.49 1454.34,830.5 1175.79,2675.23 -163.25,1080.75 -2219.2,6493.99 -2862.64,8807.04 -43.47,156.33 16.43,-2.21 -60.34,200.75 -87.88,232.57 -48.84,165.1 -148.96,293.94 -396.13,-296.59 -243.41,-237.07 -406.37,-769.19 -213.51,-697.23 -651.26,-1020.35 -1121.51,-2486.41 -562.19,-1752.87 -1828.01,-5195.52 -2633.97,-6839.28 -247.83,-505.39 -548.85,-1183.76 -658.85,-1712.79 -288.12,-1386.42 387.52,-988.67 682.05,-1706.75 -754.47,-497.87 -5172.18,-353.77 -5671.37,124.73z"/>
   <path class="fil0" d="M158304.86 9023.04c101.14,319.59 48.4,180.65 278.18,358.78 305.81,237.15 575,115.6 752.26,1126.95 127.67,728.61 111.98,1609.29 124.87,2375.09 51.13,3042.7 -181.97,11294.49 -2503.28,12729.1 -506.86,313.25 -1581.2,460.74 -2105.31,103 -1170.85,-799.04 -1290.06,-5036.26 -1332.28,-6345.54 -28.36,-880.45 -583.55,-7712.51 -217.91,-8382.92 233.69,-428.47 394.73,-204.21 675.2,-723.38 -529.55,-344.41 -3511.4,-130.03 -4640.12,-107.78 -477.92,9.43 -295.36,-66.88 -648.16,107.78 228.02,381.84 -88.11,125.25 446.66,334.92 486.31,190.65 745.86,14.14 969.23,1290.42 161.85,924.81 212.32,1790.73 333.96,2737.79 235.15,1830.58 234.57,3837.1 439.74,5662.59 197.72,1759.2 752.32,5998.62 2827.21,6441.17 770.01,164.21 2049.61,274.21 2872.59,230.52 5664.01,-301.01 5251.59,-8758.94 5439.97,-12859.19 63.73,-1386.72 -149.99,-3719.9 93.05,-4286.94 288.42,-672.91 514,-333.06 739.89,-923.47 -387,-178.66 -3971.41,34.55 -4545.74,131.13z"/>
   <path class="fil0" d="M107671.24 6272.16c229.7,369.02 0.66,61.08 324.3,294.02 484.68,348.77 755.57,352.15 956.47,948.23 188.38,558.79 196.41,7459.3 165.98,8238.75l-274.34 7989.88c-45.76,1157.15 -575.52,1520.51 -640.5,2200.41 894.65,36.25 1594.9,-8.09 2376.85,-174.59 1799.57,-383.02 3401.63,-282.97 4833.3,-407.26 2105.6,-182.79 778.11,-34.33 1994.57,504.72 272.36,-200.24 278.78,-310.31 516.67,-744.75 314.94,-575.37 1186.25,-2136.03 1267.73,-2755.6 -623.92,174.68 -1354.74,941.66 -3302.02,1218 -5094,722.94 -3603.05,709.68 -4052.59,-1497.51 -103.21,-506.72 -399.22,-5785.26 -43.4,-6094.91 532.29,-244.14 3091.48,-166.5 3860.09,-91.42 1142.49,111.53 2237.32,530.35 3580.36,653.83 -17.68,-589.3 147.63,-2630.88 122,-2730.86 -1071.18,116.47 -2215.67,646.84 -3432.36,819.52 -778.11,110.51 -3457.32,278.18 -4212.52,182.77 -287.77,-1823.22 -236.34,-6190.23 -140.79,-8162.86 910.36,-418.38 4759.54,-1308.41 5949.48,-1129.24 681.02,102.62 1220.3,453.52 1851.44,467.14 -63.36,-800.58 -1995.69,-2640.31 -2463.07,-2745.88 -786.88,658.04 160.02,618.84 -1751.75,1262.51 -800.66,269.56 -1688.54,410.06 -2509.84,606.82 -1031.77,247.17 -4441.72,669.53 -4976.06,1148.25z"/>
   <path class="fil1" d="M135401.52 7610.39c1015.71,-46.71 412.71,-1782.48 4678.35,-805.96 164.36,1039.21 158.25,4244.64 37.58,5322.17 -261.91,2338.11 -24.46,10252.85 -63.87,13357.8 -21.52,1698.78 -552.1,1473.05 -640.28,2066.63 842.37,99.31 1954.43,11.78 2820.66,-7.95 806.71,-18.5 2043.06,130.98 2363.53,-562.41 -966.79,-1193.41 -1397.62,752.55 -1827.28,-3708.91 -41.18,-427.45 -220.93,-15411.54 -65.42,-16001.87 70.95,-269.19 32.64,-171.95 152.13,-346.99 823.8,-151.99 2206.46,-25.13 3118.8,-75.08 2289.5,-125.39 1809.81,551.21 2682.38,487.85 69.99,-640.87 -251.81,-805.23 -534.19,-1350.09 -240.32,-463.7 -310.82,-1030.23 -775.99,-1402.92 -1111.99,158.03 12.68,741.94 -2494.29,624.88 -1086.65,-50.68 -2070.46,75.66 -3204.11,28.07l-4597.46 -154.57c-952.86,-215.05 -57.39,-527.05 -931.65,-675.94 -189.63,292.63 -734.95,2812.63 -718.89,3205.3z"/>
   <path class="fil1" d="M182118.4 8891.91c441.22,701.21 926.64,184.62 1019.09,1374.26 55.92,718.67 -126.34,1552.11 -121.62,2368.1 12.15,2127.85 -750.8,8620.14 -1077.07,11140.81 -134.39,1038.26 -547.46,1138.67 -653.91,1834.5 1211.45,177.76 2917.38,-113.53 4239.93,-113.6 712.91,0 1248.22,122.14 1984.78,68 1348.4,-99.16 683.23,164 1504.95,552.17 371.17,-319.66 1624.54,-2345.77 1634.63,-2873.49 -957.43,337.28 -1123.93,702.46 -2641.63,845.09 -903.66,84.94 -2477.5,165.46 -3374.22,139.31 -118.02,-1241.36 -147.71,-5795.81 229.48,-6747.5 115.81,-129.96 569.41,-113.6 776.57,-100.71 254.32,15.77 515.78,57.1 773.04,75.37 3296.87,233.53 3214.5,788.8 4721.81,926.5 22.17,-456.03 -5.75,-887.3 80.96,-1300.46 83.92,-399.74 246,-596.58 218.45,-998.02 -660.69,-84.88 -2034.74,401.72 -2913.13,440.33 -546.42,24.02 -3128.82,-9.43 -3497.99,-136.95 -249.23,-539.94 226.17,-5993.76 354.66,-6899.99 4988.43,-1310.84 5804.94,-8.25 6558.66,-37.5 14.22,-485.64 -1413.01,-2258.4 -1798.54,-2488.1 -758.22,396.88 -168.48,591.22 -1507.76,921.27 -705.48,173.86 -1440.49,246.2 -2149.14,355.09l-3331.05 400.11c-609.85,35.29 -648.09,-42.59 -1030.96,255.42z"/>
   <path class="fil5" d="M100260.37 47848.84c931.89,-147.13 1782.03,-196.18 2223.46,-228.88 163.49,-16.35 294.28,-114.45 294.28,-228.89 0,-130.79 -326.97,-212.54 -735.71,-228.89 -114.44,-179.84 -130.79,-474.11 -65.39,-670.31 245.24,98.1 555.87,147.14 899.2,147.14 1520.45,0 2697.58,-1291.57 2697.58,-2942.81 0,-1291.57 -833.8,-2059.98 -2125.37,-2059.98 -588.56,0 -997.28,212.54 -1455.06,474.13 -16.35,-1373.31 -49.04,-3073.61 -49.04,-4250.73 0,-343.34 49.04,-506.82 212.54,-588.56 65.39,-65.39 506.82,-130.79 555.86,-196.2 163.49,-98.09 130.79,-277.93 -81.75,-294.28 -441.42,-32.69 -1226.17,212.55 -2190.75,245.24 -392.38,32.7 -523.17,163.49 -539.52,277.93 -32.7,196.2 261.58,294.28 539.52,163.49 81.73,81.75 130.79,245.24 130.79,441.42 32.69,3465.98 -49.06,5901.97 -81.75,9351.62 -343.33,65.39 -752.06,212.54 -752.06,343.33 -49.04,212.54 147.14,310.63 523.17,245.23zm2272.51 -1749.33c-392.38,-16.35 -621.27,-604.92 -621.27,-1504.12 0,-490.47 32.7,-1029.98 179.84,-1324.26 359.68,-833.8 719.35,-1079.03 1258.86,-1062.69 588.56,16.35 915.55,506.82 931.89,1340.62 65.41,1422.36 -784.75,2648.53 -1749.33,2550.44z"/>
   <path class="fil6" d="M108533.02 50317.54c147.14,0 261.59,-81.75 261.59,-196.18 0,-179.83 -81.75,-294.28 -425.07,-523.17 899.19,-2305.2 2746.63,-6850.22 3645.81,-8583.21 98.1,49.04 245.24,179.83 376.03,196.18 98.1,16.35 163.49,0 163.49,-98.09 0,-49.06 -16.35,-147.14 -147.14,-310.63 -310.63,-310.63 -1291.57,-980.95 -1520.45,-980.95 -245.24,0 -359.68,147.14 -359.68,310.63 0,147.14 425.07,376.03 506.82,490.47 -228.89,523.17 -752.06,1749.34 -1487.76,3302.5 -915.54,-1307.92 -1406,-2092.67 -1912.82,-3400.59 245.23,-326.99 196.18,-752.06 32.69,-752.06 -228.89,0 -1602.2,1324.27 -1602.2,1585.85 0,196.2 343.34,179.84 588.56,-49.04 506.82,588.56 1667.6,2337.91 2354.26,3564.08 -686.66,1732.99 -1193.48,2746.63 -1929.19,4152.63 -392.37,-245.23 -735.69,-277.93 -768.4,-65.39 -32.69,114.45 49.04,245.24 179.84,376.03 376.02,392.37 1226.17,539.51 1618.54,817.45 130.79,81.73 277.93,163.48 425.07,163.48l0 0z"/>
   <path class="fil7" d="M118228.05 48045.04c703,0 1504.1,-65.39 2435.99,-212.54 310.63,-49.06 588.56,-179.84 572.21,-277.93 -16.35,-130.8 -245.24,-130.8 -376.03,-130.8 -114.44,0 -294.28,49.06 -539.51,-32.69 -179.84,-997.28 -212.54,-1994.58 -147.14,-3694.87 2059.96,-163.49 3302.49,-1275.22 3302.49,-3008.22 0,-2239.81 -1455.06,-3498.67 -4005.5,-3498.67 -719.35,0 -1406,212.54 -1406,441.42 0,114.44 65.39,147.14 228.89,147.14 196.18,0 506.82,-114.45 703,0 -130.79,1340.61 -245.24,3188.05 -343.33,5493.25 -637.62,98.09 -670.31,114.44 -670.31,261.58 0,114.45 179.83,163.49 653.96,163.49 -16.35,980.93 -49.04,1471.41 -49.04,1945.53 0,326.97 -16.35,-441.42 65.39,1847.43 -49.06,32.7 -147.14,98.1 -294.28,98.1 -163.49,0 -359.68,16.35 -474.13,49.04 -147.14,32.7 -196.18,98.1 -196.18,196.2 0,114.44 245.24,212.54 539.52,212.54zm1863.78 -4872c98.09,-1994.57 81.75,-3956.45 277.93,-5346.11 882.85,32.7 1634.89,1062.68 1634.89,2272.51 0,1912.82 -703,3073.6 -1912.82,3073.6z"/>
   <path class="fil6" d="M125241.75 47963.29c637.61,0 1258.88,-49.04 1749.34,-163.49 408.72,-98.09 670.31,-245.23 670.31,-376.03 0,-114.44 -114.45,-196.18 -294.28,-196.18 -163.49,0 -359.68,98.1 -588.56,65.39 -163.49,-2370.6 -212.54,-7733.06 -16.35,-9515.1 212.54,-16.35 425.07,16.34 604.92,16.34 130.79,0 261.58,-98.09 261.58,-212.54 0,-245.23 -196.18,-343.33 -703,-343.33 -359.68,0 -1504.1,49.04 -1978.23,65.39 -196.18,16.35 -326.97,147.14 -326.97,294.28 0,98.1 130.79,179.84 294.28,179.84 65.39,0 392.37,-32.7 555.86,-16.35 0,3433.28 -114.44,7030.06 -277.93,9645.9 -179.84,81.73 -392.38,0 -474.13,0 -147.14,0 -261.58,114.44 -261.58,245.23 0,196.18 294.28,310.63 784.75,310.63z"/>
   <path class="fil8" d="M130162.8 48045.04c1062.68,0 3449.63,-277.93 4348.83,-506.82 0,261.58 114.44,425.07 343.33,408.72 196.18,-16.35 359.68,-441.42 310.63,-866.5 -32.7,-555.86 -294.28,-1193.47 -572.21,-1193.47 -277.93,0 -147.14,703 -179.84,1029.98 -572.21,245.24 -1683.95,425.07 -2959.16,474.13 -147.14,-1389.67 -179.83,-3501.41 -245.24,-5234.4 752.06,-65.39 1373.31,-49.04 2141.72,49.06 49.04,130.79 0,523.16 212.54,523.16 179.83,0 245.24,-245.23 245.24,-801.09 0,-362.4 -163.49,-918.28 -277.94,-918.28 -228.88,0 -196.18,326.99 -196.18,457.78 -588.56,65.39 -1536.81,130.79 -2125.37,81.75 16.35,-1550.43 -49.04,-2858.35 98.1,-3934.65 653.96,-16.35 1667.6,49.04 2681.23,179.83 81.75,130.8 32.7,719.37 261.58,719.37 147.14,0 261.59,-490.48 261.59,-980.95 0,-539.51 -130.79,-866.5 -376.03,-866.5 -228.89,0 -196.18,343.33 -196.18,490.47 -425.07,-65.39 -1585.85,-98.09 -3367.9,-98.09 -768.4,0 -1389.67,147.14 -1389.67,343.33 0,163.49 228.89,228.89 703.01,212.54 49.04,1275.22 16.35,2713.92 0,4005.5 -245.24,32.69 -408.73,163.48 -408.73,294.28 49.06,114.44 196.2,179.83 408.73,196.18 32.69,1520.45 0,3416.94 -98.1,5280.72 -653.96,228.89 -752.05,261.58 -752.05,392.37 0,147.14 457.76,261.59 1128.07,261.59z"/>
   <path class="fil5" d="M137585.29 48306.62c2468.7,16.35 5280.72,-2893.77 5280.72,-5460.55 0,-3302.5 -2337.89,-5738.49 -5509.61,-5738.49 -457.76,0 -1046.33,81.75 -1046.33,359.68 0,130.79 261.58,261.58 1029.99,294.28l0 2926.46c0,3171.71 81.75,5035.49 359.68,6981.02 -523.17,130.79 -866.5,212.54 -866.5,457.78 0,147.14 457.76,179.83 752.05,179.83zm1438.71 -882.85c-114.44,-703 -261.58,-8583.21 -163.48,-9531.45 1373.31,621.27 2370.6,2583.13 2370.6,4708.51 0,2386.95 -850.14,4218.04 -2207.12,4822.94z"/>
   <path class="fil6" d="M150860.74 45919.67c-196.18,-32.69 -457.78,277.93 -752.06,457.78 -719.35,-686.66 -2354.25,-2239.81 -3188.05,-3286.15 1782.05,-719.35 2664.89,-1847.43 2713.94,-2910.12 65.39,-1912.82 -1732.99,-3220.74 -4365.18,-3220.74 -604.9,0 -997.28,98.1 -997.28,277.93 -16.35,130.79 65.39,147.14 653.96,196.18 -130.79,2158.08 -196.18,3792.97 -228.89,5476.92 -32.69,1389.67 -16.35,2844.71 32.7,4561.36 -81.75,49.04 -408.73,49.04 -506.82,49.04 -228.89,0 -359.68,65.39 -376.03,179.84 -16.35,212.54 228.89,343.33 703,343.33 572.21,0 2010.92,-98.1 2436.01,-179.84 196.18,-49.04 326.97,-163.48 326.97,-277.93 0,-98.1 -114.44,-163.49 -310.63,-163.49 -196.18,0 -408.72,49.06 -621.26,32.7 -114.44,-784.75 -212.54,-2746.63 -130.79,-3760.26 572.21,670.31 2321.56,2926.46 2615.84,3531.38 -16.35,114.44 -196.2,163.49 -343.34,294.28 -196.18,81.75 -147.14,343.33 65.39,376.03 212.54,49.04 425.08,-179.84 572.23,-261.59 457.76,-261.58 1504.1,-1013.64 1700.29,-1291.57 179.84,-261.58 147.14,-392.37 0,-425.07zm-4659.46 -3073.6c-130.79,-1520.45 -81.73,-3155.36 163.49,-5297.07 1177.13,392.37 1716.64,1275.22 1683.95,2566.78 -32.7,1062.69 -703,2288.86 -1847.44,2730.29z"/>
   <path class="fil8" d="M152740.93 47963.29c637.61,0 1258.88,-49.04 1749.34,-163.49 408.72,-98.09 670.31,-245.23 670.31,-376.03 0,-114.44 -114.45,-196.18 -294.28,-196.18 -163.49,0 -359.68,98.1 -588.56,65.39 -163.49,-2370.6 -212.54,-7733.06 -16.35,-9515.1 212.54,-16.35 425.07,16.34 604.92,16.34 130.79,0 261.58,-98.09 261.58,-212.54 0,-245.23 -196.18,-343.33 -703,-343.33 -359.68,0 -1504.1,49.04 -1978.23,65.39 -196.18,16.35 -326.97,147.14 -326.97,294.28 0,98.1 130.79,179.84 294.28,179.84 65.39,0 392.37,-32.7 555.86,-16.35 0,3433.28 -114.44,7030.06 -277.93,9645.9 -179.84,81.73 -392.38,0 -474.13,0 -147.14,0 -261.58,114.44 -261.58,245.23 0,196.18 294.28,310.63 784.75,310.63z"/>
   <path class="fil5" d="M159394.96 48388.37c1340.61,-16.35 2239.81,-228.89 2239.81,-441.42 0,-152.58 -326.97,-201.64 -817.45,-185.29l-310.62 16.35c-65.41,-2125.37 -130.8,-9378.87 -65.41,-9787.59 752.06,-32.7 1193.48,-32.7 1602.2,16.35 114.45,408.72 49.06,929.16 277.93,912.81 179.84,0 310.63,-373.3 376.03,-929.16 81.75,-752.06 -32.69,-1340.62 -277.93,-1324.27 -98.1,0 -212.54,196.18 -228.89,408.72 -32.69,49.06 0,32.7 0,130.8 -425.07,-16.35 -1177.12,-16.35 -1553.15,16.34 -1487.76,81.75 -3204.4,277.94 -3662.18,408.73 0,-261.59 -114.44,-425.07 -326.97,-408.73 -163.49,0 -310.63,343.34 -310.63,784.76 0,604.9 310.63,1337.88 604.92,1321.53 114.44,-13.62 179.83,-111.71 179.83,-275.2 0,-228.89 -65.39,-604.92 -49.04,-784.75 376.03,-114.44 1079.03,-212.54 1602.2,-228.89 130.79,-16.35 81.75,-16.35 310.63,-16.35 196.18,2109.02 130.79,7160.85 -114.45,9809.39 -621.26,-16.35 -1111.72,147.14 -1111.72,294.28 0,196.18 441.41,277.93 1634.89,261.58l0 0z"/>
   <path class="fil7" d="M170054.55 47391.08c-130.79,0 -441.41,32.69 -523.16,32.69 -228.89,-801.1 -474.13,-2288.85 -882.85,-4087.24 474.11,-81.75 882.85,-179.84 882.85,-359.68 0,-130.79 -261.59,-179.84 -997.28,-179.84 -228.89,-1144.43 -752.06,-3351.53 -1095.38,-4855.65 -16.35,-98.09 -32.7,-179.83 -65.39,-261.58 261.58,16.35 523.16,32.7 653.96,32.7 212.54,0 343.33,-114.45 343.33,-277.94 0,-196.18 -490.47,-326.97 -1307.92,-326.97 -686.66,0 -1732.99,-32.7 -2043.62,81.75 -245.24,65.39 -376.03,163.49 -376.03,310.63 0,147.14 163.49,277.93 359.68,277.93 81.75,16.34 294.28,0 539.52,-16.35 -261.59,1683.95 -621.27,3743.91 -931.89,5411.51 -277.93,-16.35 -735.71,65.39 -735.71,245.24 0,196.18 376.03,310.62 621.26,310.62 -277.93,1585.86 -490.47,2746.63 -784.75,4332.49 -163.49,49.04 -392.37,-65.41 -539.51,-65.41 -179.84,0 -277.94,81.75 -277.94,245.24 0,130.79 196.2,310.63 326.99,310.63 294.28,16.35 1029.99,32.69 1880.13,32.69 588.56,0 1013.64,-130.79 1013.64,-310.62 0,-81.75 -81.75,-163.49 -147.14,-163.49 -196.18,0 -408.72,49.04 -588.56,49.04l-147.14 -32.69c0,-703.01 163.49,-2517.75 506.82,-4414.22 555.86,-32.7 1307.92,-114.45 1569.5,-212.54 277.94,1128.07 506.82,3204.39 555.87,4087.24l-506.82 -16.35c-179.84,0 -359.68,147.14 -359.68,277.93 0,130.8 147.14,245.24 343.33,245.24 1079.03,-16.35 2207.11,-163.49 2648.53,-326.97 147.14,-49.06 228.89,-114.45 228.89,-212.54 0,-81.75 -65.39,-163.49 -163.49,-163.49l0 0zm-4218.03 -4299.79c147.14,-866.5 441.42,-3269.8 670.31,-4414.22 212.54,1046.34 588.55,3269.8 735.69,4250.74 -376.02,81.73 -997.28,163.48 -1406,163.48z"/>
   <path class="fil8" d="M180387.13 48535.51c147.14,0 392.38,-245.24 670.31,-703 98.1,-196.2 245.24,-490.48 245.24,-621.27 0,-196.18 -32.7,-326.97 -196.2,-326.97 -277.93,0 -245.23,604.9 -539.51,604.9 -392.38,0 -604.92,-408.72 -604.92,-1062.68 0,-130.79 16.35,-376.03 49.06,-572.21 49.04,-49.04 294.27,-163.49 441.41,-212.54 376.03,-114.44 506.82,-196.18 506.82,-261.58 0,-98.1 -130.79,-196.2 -294.27,-196.2 -179.84,0 -506.82,49.06 -653.96,114.45 0,-1193.48 506.82,-2828.37 506.82,-3809.32 0,-1095.37 -948.24,-1716.64 -2207.12,-1716.64 -1062.68,0 -1912.84,490.47 -2534.09,1242.52 -114.44,-163.49 -245.24,-228.89 -392.37,-228.89 -114.45,0 -196.2,65.39 -196.2,196.18 0,130.8 196.2,277.94 359.68,474.13 376.03,441.42 245.24,931.89 539.52,931.89 114.44,0 196.18,-179.84 196.18,-408.72 0,-196.2 -65.39,-392.38 -114.44,-457.78 359.68,-817.45 1144.43,-1258.88 1880.13,-1258.88 784.75,0 1193.47,572.21 1193.47,1438.71 0,359.68 -65.39,768.41 -228.89,1193.48 -228.89,-65.39 -523.16,-98.1 -768.4,-98.1 -1536.81,0 -2599.49,931.89 -2599.49,2125.37 0,833.79 719.35,1536.81 1814.74,1536.81 310.63,0 882.85,-114.45 1128.07,-245.24 -49.04,1062.68 948.24,1765.69 1732.99,1798.39 -130.79,130.79 -163.48,212.54 -163.48,310.63 0,98.1 98.09,212.54 228.88,212.54zm-2468.7 -2583.13c-474.11,0 -784.75,-359.68 -784.75,-1177.13 0,-1029.99 588.56,-1520.45 1307.92,-1520.45 130.79,0 376.03,65.39 490.47,147.14 -81.73,294.28 -196.18,1291.57 -294.27,2288.85 -114.45,147.14 -457.78,261.59 -719.37,261.59z"/>
   <path class="fil9" d="M187760.52 45739.84c-147.14,0 -392.38,49.04 -555.86,32.69 81.75,-703 114.44,-1683.95 114.44,-2583.13 0,-1602.2 -376.03,-2386.95 -1111.73,-2386.95 -326.97,0 -752.05,163.49 -1144.43,572.21 -441.42,539.52 -768.4,980.93 -1242.52,1863.78 16.35,-915.54 65.41,-1863.78 130.8,-2566.78 32.69,-65.39 130.79,-114.45 294.28,-179.84 261.58,-98.09 294.28,-179.83 294.28,-261.58 0,-98.1 -98.1,-147.14 -277.94,-147.14 -114.44,0 -196.18,0 -343.33,32.69 -326.97,114.45 -1046.33,212.54 -1356.96,261.59 -163.49,16.35 -228.89,98.09 -228.89,228.89 0,98.09 114.44,163.48 261.58,163.48 98.1,0 130.8,0 163.49,-16.34 -130.79,817.44 -228.89,2877.42 -228.89,4495.96 0,637.62 16.35,1438.72 49.06,1798.4 -343.34,65.39 -621.27,179.83 -621.27,261.58 16.35,114.44 147.14,228.89 326.99,228.89 163.48,0 1438.71,-196.2 1945.53,-261.59 228.89,0 408.72,-163.48 408.72,-343.33 0,-65.39 -65.39,-114.44 -163.49,-114.44 -49.04,0 -228.88,81.75 -310.62,81.75 -212.54,0 -277.93,-114.45 -277.93,-588.56 0,-261.59 16.34,-801.1 32.69,-899.2 163.49,-1029.99 441.42,-1765.68 882.85,-2599.49 294.28,-506.82 621.26,-850.14 882.85,-850.14 196.18,0 277.93,196.18 294.28,555.86 32.69,506.82 0,1029.99 0,1585.85 -16.35,457.78 -49.06,948.24 -147.14,1683.95 -16.35,147.14 -98.1,277.93 -245.24,392.38 -114.44,81.73 -343.33,114.44 -343.33,245.23 0,114.45 98.09,228.89 261.58,228.89 425.07,0 1373.31,-277.93 2256.16,-555.86 212.54,-65.39 261.58,-147.14 261.58,-261.59 0,-81.75 -49.04,-98.09 -261.58,-98.09z"/>
   <path class="fil6" d="M191864.19 48126.79c457.78,0 1046.34,-98.1 2010.92,-310.63 294.28,-81.75 866.5,-212.54 866.5,-408.72 0,-81.75 -49.04,-130.8 -343.33,-130.8 -212.54,0 -425.07,81.75 -555.86,65.39 -98.1,-425.07 -163.49,-3040.9 -179.84,-5852.93 -16.34,-1847.43 -32.69,-4643.1 0,-4773.9 457.78,-49.04 882.85,-212.54 882.85,-425.07 0,-98.09 -98.1,-179.83 -228.89,-179.83l-81.75 16.35c-196.18,49.04 -523.16,98.09 -850.14,98.09 -261.58,0 -539.51,-16.35 -686.65,-49.04 -441.42,-65.39 -735.71,-147.14 -915.55,-32.7 -49.04,32.7 -81.75,65.39 -81.75,163.49 0,163.49 326.99,277.93 752.06,392.38l0 490.47c0,1683.95 -98.1,4430.58 -98.1,4626.76 -228.88,-196.18 -703,-294.28 -1062.68,-294.28 -1569.5,0 -2615.84,1209.82 -2615.84,2812.02 0,1389.67 899.2,2370.6 2125.37,2354.26 670.31,-16.35 1242.52,-261.59 1487.75,-719.37 32.7,212.55 32.7,523.17 32.7,604.92 0,441.42 -81.75,752.06 -245.24,931.89 -163.49,179.84 -621.26,114.45 -653.96,310.63 -32.69,163.49 98.1,310.63 441.42,310.63l0 0zm-768.4 -2010.93c-523.17,0 -882.85,-670.3 -882.85,-1618.54 0,-1471.41 506.82,-2436.01 1324.27,-2436.01 572.21,0 850.14,474.13 850.14,1782.05 0,1307.92 -572.21,2239.81 -1291.57,2272.5z"/>
   <path class="fil6" d="M200463.82 48045.04c703,0 1504.1,-65.39 2435.99,-212.54 310.63,-49.06 588.56,-179.84 572.21,-277.93 -16.35,-130.8 -245.24,-130.8 -376.03,-130.8 -114.44,0 -294.28,49.06 -539.51,-32.69 -179.84,-997.28 -212.54,-1994.58 -147.14,-3694.87 2059.96,-163.49 3302.49,-1275.22 3302.49,-3008.22 0,-2239.81 -1455.06,-3498.67 -4005.5,-3498.67 -719.35,0 -1406,212.54 -1406,441.42 0,114.44 65.39,147.14 228.89,147.14 196.18,0 506.82,-114.45 703,0 -130.79,1340.61 -245.24,3188.05 -343.33,5493.25 -637.62,98.09 -670.31,114.44 -670.31,261.58 0,114.45 179.83,163.49 653.96,163.49 -16.35,980.93 -49.04,1471.41 -49.04,1945.53 0,326.97 -16.35,-441.42 65.39,1847.43 -49.06,32.7 -147.14,98.1 -294.28,98.1 -163.49,0 -359.68,16.35 -474.13,49.04 -147.14,32.7 -196.18,98.1 -196.18,196.2 0,114.44 245.24,212.54 539.52,212.54zm1863.78 -4872c98.09,-1994.57 81.75,-3956.45 277.93,-5346.11 882.85,32.7 1634.89,1062.68 1634.89,2272.51 0,1912.82 -703,3073.6 -1912.82,3073.6z"/>
   <path class="fil5" d="M207477.53 47963.29c637.61,0 1258.88,-49.04 1749.34,-163.49 408.72,-98.09 670.31,-245.23 670.31,-376.03 0,-114.44 -114.45,-196.18 -294.28,-196.18 -163.49,0 -359.68,98.1 -588.56,65.39 -163.49,-2370.6 -212.54,-7733.06 -16.35,-9515.1 212.54,-16.35 425.07,16.34 604.92,16.34 130.79,0 261.58,-98.09 261.58,-212.54 0,-245.23 -196.18,-343.33 -703,-343.33 -359.68,0 -1504.1,49.04 -1978.23,65.39 -196.18,16.35 -326.97,147.14 -326.97,294.28 0,98.1 130.79,179.84 294.28,179.84 65.39,0 392.37,-32.7 555.86,-16.35 0,3433.28 -114.44,7030.06 -277.93,9645.9 -179.84,81.73 -392.38,0 -474.13,0 -147.14,0 -261.58,114.44 -261.58,245.23 0,196.18 294.28,310.63 784.75,310.63z"/>
   <path class="fil7" d="M212398.57 48045.04c1062.68,0 3449.63,-277.93 4348.83,-506.82 0,261.58 114.44,425.07 343.33,408.72 196.18,-16.35 359.68,-441.42 310.63,-866.5 -32.7,-555.86 -294.28,-1193.47 -572.21,-1193.47 -277.93,0 -147.14,703 -179.84,1029.98 -572.21,245.24 -1683.95,425.07 -2959.16,474.13 -147.14,-1389.67 -179.83,-3501.41 -245.24,-5234.4 752.06,-65.39 1373.31,-49.04 2141.72,49.06 49.04,130.79 0,523.16 212.54,523.16 179.83,0 245.24,-245.23 245.24,-801.09 0,-362.4 -163.49,-918.28 -277.94,-918.28 -228.88,0 -196.18,326.99 -196.18,457.78 -588.56,65.39 -1536.81,130.79 -2125.37,81.75 16.35,-1550.43 -49.04,-2858.35 98.1,-3934.65 653.96,-16.35 1667.6,49.04 2681.23,179.83 81.75,130.8 32.7,719.37 261.58,719.37 147.14,0 261.59,-490.48 261.59,-980.95 0,-539.51 -130.79,-866.5 -376.03,-866.5 -228.89,0 -196.18,343.33 -196.18,490.47 -425.07,-65.39 -1585.85,-98.09 -3367.9,-98.09 -768.4,0 -1389.67,147.14 -1389.67,343.33 0,163.49 228.89,228.89 703.01,212.54 49.04,1275.22 16.35,2713.92 0,4005.5 -245.24,32.69 -408.73,163.48 -408.73,294.28 49.06,114.44 196.2,179.83 408.73,196.18 32.69,1520.45 0,3416.94 -98.1,5280.72 -653.96,228.89 -752.05,261.58 -752.05,392.37 0,147.14 457.76,261.59 1128.07,261.59z"/>
   <path class="fil8" d="M219821.07 48306.62c2468.7,16.35 5280.72,-2893.77 5280.72,-5460.55 0,-3302.5 -2337.89,-5738.49 -5509.61,-5738.49 -457.76,0 -1046.33,81.75 -1046.33,359.68 0,130.79 261.58,261.58 1029.99,294.28l0 2926.46c0,3171.71 81.75,5035.49 359.68,6981.02 -523.17,130.79 -866.5,212.54 -866.5,457.78 0,147.14 457.76,179.83 752.05,179.83zm1438.71 -882.85c-114.44,-703 -261.58,-8583.21 -163.48,-9531.45 1373.31,621.27 2370.6,2583.13 2370.6,4708.51 0,2386.95 -850.14,4218.04 -2207.12,4822.94z"/>
   <path class="fil5" d="M233096.52 45919.67c-196.18,-32.69 -457.78,277.93 -752.06,457.78 -719.35,-686.66 -2354.25,-2239.81 -3188.05,-3286.15 1782.05,-719.35 2664.89,-1847.43 2713.94,-2910.12 65.39,-1912.82 -1732.99,-3220.74 -4365.18,-3220.74 -604.9,0 -997.28,98.1 -997.28,277.93 -16.35,130.79 65.39,147.14 653.96,196.18 -130.79,2158.08 -196.18,3792.97 -228.89,5476.92 -32.69,1389.67 -16.35,2844.71 32.7,4561.36 -81.75,49.04 -408.73,49.04 -506.82,49.04 -228.89,0 -359.68,65.39 -376.03,179.84 -16.35,212.54 228.89,343.33 703,343.33 572.21,0 2010.92,-98.1 2436.01,-179.84 196.18,-49.04 326.97,-163.48 326.97,-277.93 0,-98.1 -114.44,-163.49 -310.63,-163.49 -196.18,0 -408.72,49.06 -621.26,32.7 -114.44,-784.75 -212.54,-2746.63 -130.79,-3760.26 572.21,670.31 2321.56,2926.46 2615.84,3531.38 -16.35,114.44 -196.2,163.49 -343.34,294.28 -196.18,81.75 -147.14,343.33 65.39,376.03 212.54,49.04 425.08,-179.84 572.23,-261.59 457.76,-261.58 1504.1,-1013.64 1700.29,-1291.57 179.84,-261.58 147.14,-392.37 0,-425.07zm-4659.46 -3073.6c-130.79,-1520.45 -81.73,-3155.36 163.49,-5297.07 1177.13,392.37 1716.64,1275.22 1683.95,2566.78 -32.7,1062.69 -703,2288.86 -1847.44,2730.29z"/>
   <path class="fil7" d="M237314.63 47767.11c2059.96,0 3613.12,-2370.61 3613.12,-5460.56 0,-3171.7 -1144.44,-4953.73 -3155.36,-4953.73 -1814.74,0 -3743.91,3302.49 -3743.91,6376.09 0,2550.44 1209.82,4038.21 3286.15,4038.21zm-196.2 -572.21c-948.24,0 -1618.54,-1242.52 -1618.54,-3188.05 0,-3155.36 1275.22,-6065.48 2599.49,-6065.48 833.79,0 1389.65,1585.86 1307.92,3940.11 -65.39,3367.88 -931.9,5313.42 -2288.86,5313.42z"/>
   <path class="fil8" d="M244802.52 48388.37c1340.61,-16.35 2239.81,-228.89 2239.81,-441.42 0,-152.58 -326.97,-201.64 -817.45,-185.29l-310.62 16.35c-65.41,-2125.37 -130.8,-9378.87 -65.41,-9787.59 752.06,-32.7 1193.48,-32.7 1602.2,16.35 114.45,408.72 49.06,929.16 277.93,912.81 179.84,0 310.63,-373.3 376.03,-929.16 81.75,-752.06 -32.69,-1340.62 -277.93,-1324.27 -98.1,0 -212.54,196.18 -228.89,408.72 -32.69,49.06 0,32.7 0,130.8 -425.07,-16.35 -1177.12,-16.35 -1553.15,16.34 -1487.76,81.75 -3204.4,277.94 -3662.18,408.73 0,-261.59 -114.44,-425.07 -326.97,-408.73 -163.49,0 -310.63,343.34 -310.63,784.76 0,604.9 310.63,1337.88 604.92,1321.53 114.44,-13.62 179.83,-111.71 179.83,-275.2 0,-228.89 -65.39,-604.92 -49.04,-784.75 376.03,-114.44 1079.03,-212.54 1602.2,-228.89 130.79,-16.35 81.75,-16.35 310.63,-16.35 196.18,2109.02 130.79,7160.85 -114.45,9809.39 -621.26,-16.35 -1111.72,147.14 -1111.72,294.28 0,196.18 441.41,277.93 1634.89,261.58l0 0z"/>
   <path class="fil6" d="M255462.1 47391.08c-130.79,0 -441.41,32.69 -523.16,32.69 -228.89,-801.1 -474.13,-2288.85 -882.85,-4087.24 474.11,-81.75 882.85,-179.84 882.85,-359.68 0,-130.79 -261.59,-179.84 -997.28,-179.84 -228.89,-1144.43 -752.06,-3351.53 -1095.38,-4855.65 -16.35,-98.09 -32.7,-179.83 -65.39,-261.58 261.58,16.35 523.16,32.7 653.96,32.7 212.54,0 343.33,-114.45 343.33,-277.94 0,-196.18 -490.47,-326.97 -1307.92,-326.97 -686.66,0 -1732.99,-32.7 -2043.62,81.75 -245.24,65.39 -376.03,163.49 -376.03,310.63 0,147.14 163.49,277.93 359.68,277.93 81.75,16.34 294.28,0 539.52,-16.35 -261.59,1683.95 -621.27,3743.91 -931.89,5411.51 -277.93,-16.35 -735.71,65.39 -735.71,245.24 0,196.18 376.03,310.62 621.26,310.62 -277.93,1585.86 -490.47,2746.63 -784.75,4332.49 -163.49,49.04 -392.37,-65.41 -539.51,-65.41 -179.84,0 -277.94,81.75 -277.94,245.24 0,130.79 196.2,310.63 326.99,310.63 294.28,16.35 1029.99,32.69 1880.13,32.69 588.56,0 1013.64,-130.79 1013.64,-310.62 0,-81.75 -81.75,-163.49 -147.14,-163.49 -196.18,0 -408.72,49.04 -588.56,49.04l-147.14 -32.69c0,-703.01 163.49,-2517.75 506.82,-4414.22 555.86,-32.7 1307.92,-114.45 1569.5,-212.54 277.94,1128.07 506.82,3204.39 555.87,4087.24l-506.82 -16.35c-179.84,0 -359.68,147.14 -359.68,277.93 0,130.8 147.14,245.24 343.33,245.24 1079.03,-16.35 2207.11,-163.49 2648.53,-326.97 147.14,-49.06 228.89,-114.45 228.89,-212.54 0,-81.75 -65.39,-163.49 -163.49,-163.49l0 0zm-4218.03 -4299.79c147.14,-866.5 441.42,-3269.8 670.31,-4414.22 212.54,1046.34 588.55,3269.8 735.69,4250.74 -376.02,81.73 -997.28,163.48 -1406,163.48z"/>
  </g>
 </g>
</svg>
